<?xml version="1.0" encoding="UTF-8" standalone="no"?>
<svg
   xmlns:dc="http://purl.org/dc/elements/1.1/"
   xmlns:cc="http://creativecommons.org/ns#"
   xmlns:rdf="http://www.w3.org/1999/02/22-rdf-syntax-ns#"
   xmlns:svg="http://www.w3.org/2000/svg"
   xmlns="http://www.w3.org/2000/svg"
   viewBox="0 0 672 672"
   height="672"
   width="672"
   xml:space="preserve"
   id="svg2"
   version="1.1"><metadata
     id="metadata8"><rdf:RDF><cc:Work
         rdf:about=""><dc:format>image/svg+xml</dc:format><dc:type
           rdf:resource="http://purl.org/dc/dcmitype/StillImage" /></cc:Work></rdf:RDF></metadata><defs
     id="defs6" /><g
     transform="matrix(1.3333333,0,0,-1.3333333,0,672)"
     id="g10"><g
       transform="scale(0.1)"
       id="g12"><path
         id="path14"
         style="fill:#ffffff;fill-opacity:1;fill-rule:evenodd;stroke:none"
         d="M 2258.71,5006.04 C 3631.71,5150.35 4861.73,4154.3 5006.04,2781.29 5150.35,1408.29 4154.3,178.27 2781.29,33.9609 1408.29,-110.348 178.27,885.703 33.9609,2258.71 -110.348,3631.71 885.703,4861.73 2258.71,5006.04" /><path
         id="path16"
         style="fill:#ffffff;fill-opacity:1;fill-rule:evenodd;stroke:none"
         d="m 2513.71,3859.58 114.72,-97.31 7.46,24.44 6.68,29.92 3.24,19.53 0.52,20.5 0.06,20.52 1.17,10 -0.46,17.79 3.42,26.82 7.02,24.9 6.68,29.92 11.12,42.58 88.51,-51.95 36.8,-23.28 40.08,-19.71 63.06,-30.79 23.85,-12.46 70.68,-36 54.11,-23.71 133.55,-91.86 1.54,6.35 3.1,14.51 3.67,18.6 6.89,20.34 7.23,15.32 9.93,13.88 12.41,22.03 10.01,16.61 7.4,22.16 3.4,8.12 7.15,12.58 4.84,10.83 4.41,12.19 6.43,19.45 7.87,22.6 7.83,20.77 4.36,10.38 0.97,2.25 3.24,1.74 26.24,-115.57 45.72,-210.44 3.85,-10.13 1.78,-1.42 29.53,-22.63 89.92,-68.41 55.95,-41.09 50.57,-37.31 74.75,-55.25 3.13,-2.35 3.15,-1.91 52.31,-40.55 -78.11,-184.95 -6.7,-12.15 -103.68,-96.3 -34.24,-37.43 -29.58,-33.45 3.17,-0.99 0.9,-0.48 2.25,-1.42 0.43,-0.93 0.86,-1.84 0.41,-1.84 0.41,-1.83 1.3,-2.77 0.37,-3.2 0.41,-1.84 0.58,-13.23 -0.07,-2.74 -0.49,-1.35 -0.5,-1.82 -0.52,-2.26 -0.99,-3.16 -0.12,-4.56 -0.08,-3.2 -0.57,-4.54 -0.54,-3.18 -0.53,-3.17 -0.05,-1.82 -0.02,-0.92 0.43,-0.92 0.42,-1.38 0.41,-1.83 0.83,-3.22 0.42,-1.38 0.88,-1.39 1.31,-2.31 2.2,-3.24 2.24,-1.43 1.33,-1.41 1.8,-0.95 1.79,-1.42 2.27,-0.51 2.71,-0.98 0.9,-0.48 1.34,-0.95 2.72,-0.52 3.17,-1 4.09,-0.55 5.46,-0.6 3.64,-0.09 8.66,-0.22 1.36,-0.49 1.8,-0.96 1.34,-0.94 1.32,-1.86 1.79,-1.41 2.69,-1.89 2.22,-2.34 1.75,-2.79 0.42,-1.37 0.87,-1.85 0.39,-2.29 0.85,-2.3 0.86,-2.3 0.86,-1.85 0.86,-2.3 1.33,-1.4 1.77,-2.32 1.77,-1.88 0.9,-0.48 1.36,-0.48 1.81,-0.51 2.26,-0.51 3.18,-0.53 0.9,-0.49 -11.5,-39.83 -5.26,-9.9 -6.96,-4.38 -15.58,-3.25 -17.38,-1.84 -11.97,-4.71 -5.14,-4.88 -6.59,-8.05 -4.53,-16.75 -0.84,-15.03 0.73,-7.31 1.26,-4.13 6.52,-12.48 2.19,-3.71 0.41,-1.83 -4.03,-50.96 0.79,-4.58 1.72,-4.15 3.96,-5.57 2.62,-4.63 1.73,-3.69 -30.65,-39.8 -26.98,-38.98 -9.06,-15.28 -25.13,-55.9 -8.75,-21.2 -11.41,-36.19 -11.3,-32.09 -5.54,-20.83 -4.12,-18.14 -0.02,-0.91 -0.59,-5.45 -12.34,-18.84 -12.89,-22.93 -14.52,-32.91 -21.32,-49.62 -18.53,-46.95 -12.68,-32.51 -6.83,-17.6 -5.4,-14.91 -19.04,-67.46 -13.78,-39.77 -11.59,-43.48 -16.39,-52.93 -18.85,-59.71 -13.85,-42.51 -5.48,-18.1 -9.26,-23.47 -17.22,-31.49 -36.85,-68.36 -13.85,-24.73 -7.29,-17.59 -8.77,-22.12 -5.89,-16.72 -13.79,-22 -16.59,-24.65 -19.45,-30.06 -4.79,-8.99 -9.21,-21.2 -8.08,-13.02 -5.21,-7.62 -15.47,-16.47 -13.69,-18.35 -10.95,-18.42 -13.73,-19.7 -2.79,-2.22 -10.5,-18.43 -29.45,-46.21 -22.91,-22.22 -32.37,-0.08 -56.09,0.05 -24.17,0.16 -94.84,0.13 -43.77,0.21 -81.19,-0.68 -63.39,-0.66 -3.19,0.08 -21.89,0.1 -10.95,-0.18 -75.7,-0.36 -63.85,-0.19 -62.92,0.23 -43.32,0.19 -51.98,-0.05 -113.54,0.16 -21.89,-0.37 -31.47,-0.1 -87.54,0.4 -0.91,0.02 -59.74,0.15 -60.63,0.64 -49.7,-0.11 -56.09,0.06 -72.5,0.02 -25.08,-0.27 -32.85,-0.54 -56.53,0.53 -61.1,0.19 -57.45,0.09 16.49,38.79 0.04,1.83 0.54,3.17 0.96,1.81 1.91,3.59 3.34,5.84 4.3,7.64 3.33,5.39 2.38,4.04 4.28,6.74 1.9,3.14 1.51,5.44 1.54,6.79 0.5,1.81 0.97,2.26 3.33,5.39 0.5,1.81 1,3.17 0.94,1.34 4.73,6.72 2.5,8.6 1.52,5.89 5.31,11.72 5.35,13.09 4.9,13.09 5.32,12.18 4.4,11.74 3.88,9.02 5.35,13.09 3.39,8.12 7.3,18.06 4.86,11.27 4.39,11.29 4.84,11.27 4.36,9.92 4.36,9.92 2.44,6.78 0.97,2.25 2.35,2.68 5.69,8.53 0.96,1.79 3.86,8.11 3.86,8.56 1.01,4.08 4.53,16.75 8.08,30.81 0.02,0.45 9.53,34.41 7.05,25.82 2.67,15.43 0.03,1.36 0.69,44.68 -1.69,113.11 -3.96,113.19 0.1,4.1 -0.19,28.27 -2.49,153.28 -1.59,98.52 -0.35,4.11 -4.29,154.23 -0.71,97.59 -0.47,53.36 2.31,19.1 -4.04,2.38 -2.65,93.08 -1.44,104.91 0.14,5.01 40.13,71.94 52.82,-20.5 4.9,13.1 2.93,7.67 52.62,150.5 2.93,7.68 39.09,138.53 6.26,13.07 18.14,49.7 10.84,31.63 34.42,98.53 15.48,52.95 18.6,49.69 8.76,22.11 10.53,19.34 14.82,26.98 11.8,15.67 12.83,20.64 7.1,9.85 27.16,64.06 54.39,76.59 -11.88,34.95 -5.1,14.73 -15.76,43.71 27.52,6.14 -2.4,67.09 9.23,40.34 39.33,40.04 20.5,53.28 158.16,-74.69 78.84,-37.58 75.24,-36.1 83.24,-25.84 60.98,-58.54 3.48,-6.47 30.57,-35.43" /><path
         id="path18"
         style="fill:#9f1b29;fill-opacity:1;fill-rule:nonzero;stroke:none"
         d="m 2525.92,3872.03 93.51,-79.32 6.01,26.86 3.04,18.35 0.49,19.15 v 0.04 l 0.06,20.07 c 0,0.66 0.04,1.32 0.11,1.97 h -0.04 l 1.06,9.09 -0.42,16.33 c -0.03,1.04 0.04,2.06 0.19,3.06 l 3.36,26.33 c 0.11,0.86 0.28,1.7 0.51,2.52 l -0.03,0.01 7.02,24.89 0.03,0.14 6.45,28.84 c 0.05,0.2 0.1,0.4 0.15,0.6 l -0.01,0.01 11.11,42.58 c 2.41,9.29 11.89,14.86 21.18,12.46 1.81,-0.47 3.48,-1.21 4.98,-2.17 l 87.96,-51.62 c 0.15,-0.09 0.31,-0.19 0.46,-0.29 l 0.01,0.02 36.23,-22.92 38.99,-19.18 0.03,0.06 63.06,-30.78 c 0.58,-0.29 1.15,-0.61 1.69,-0.95 l 22.41,-11.71 0.02,0.05 70.67,-35.99 0.11,-0.06 53.06,-23.25 c 1.19,-0.52 2.3,-1.17 3.3,-1.9 l 111.79,-76.89 2.72,13.8 c 0.21,1.04 0.5,2.04 0.87,3 l 6.65,19.59 c 0.26,0.79 0.58,1.55 0.95,2.28 l 7.02,14.87 c 0.55,1.17 1.22,2.24 1.97,3.22 l 8.87,12.4 12.05,21.38 c 0.09,0.16 0.18,0.32 0.28,0.48 h -0.01 l 9.09,15.1 6.75,20.2 c 0.13,0.39 0.28,0.77 0.43,1.14 l -0.02,0.01 3.39,8.12 c 0.4,0.94 0.86,1.83 1.39,2.67 l 6.36,11.18 4.15,9.29 4.07,11.23 -0.03,0.01 6.42,19.45 c 0.16,0.47 0.34,0.94 0.54,1.4 l 7.47,21.46 0.15,0.41 -0.01,0.01 7.82,20.77 c 0.19,0.51 0.41,1.01 0.64,1.49 l 4,9.5 0.05,0.11 -0.05,0.02 0.97,2.26 c 1.74,4.04 4.82,7.09 8.5,8.84 l 2.5,1.34 c 8.46,4.56 19.01,1.38 23.56,-7.08 0.9,-1.68 1.5,-3.44 1.81,-5.22 l 26.07,-114.77 0.03,-0.15 0.03,0.01 45.47,-209.33 1.6,-4.19 27.34,-20.96 c 0.31,-0.24 0.61,-0.48 0.9,-0.74 l 88.72,-67.49 0.02,0.03 55.96,-41.09 50.57,-37.31 c 0.21,-0.15 0.41,-0.31 0.61,-0.46 l 74.21,-54.86 0.11,-0.09 0.02,0.02 2.36,-1.77 2.43,-1.47 c 0.91,-0.55 1.76,-1.17 2.53,-1.85 l 51.42,-39.85 c 6.6,-5.1 8.52,-14.01 5.07,-21.23 l -77.81,-184.23 c -0.24,-0.56 -0.5,-1.09 -0.78,-1.61 l 0.03,-0.02 -6.69,-12.14 c -1.03,-1.87 -2.35,-3.48 -3.88,-4.8 l -103.08,-95.75 -33.22,-36.31 0.01,-0.01 -18.81,-21.27 c 0.37,-0.94 0.65,-1.9 0.85,-2.86 l 0.3,-1.37 0.53,-1.12 c 0.84,-1.76 1.34,-3.6 1.56,-5.44 v 0 l 0.32,-2.69 0.13,-0.58 c 0.22,-1 0.35,-2 0.39,-3 h 0.02 l 0.57,-13.23 c 0.03,-0.63 0.02,-1.24 -0.02,-1.85 l -0.05,-2.05 c -0.05,-2.12 -0.48,-4.14 -1.22,-6 l -0.28,-1.03 -0.42,-1.8 c -0.1,-0.46 -0.22,-0.91 -0.35,-1.36 h 0.02 l -0.31,-0.99 -0.05,-1.97 -0.08,-3.19 c -0.02,-0.74 -0.08,-1.47 -0.19,-2.19 l -0.52,-4.13 c -0.03,-0.23 -0.06,-0.45 -0.1,-0.67 l 0.03,-0.01 -0.54,-3.18 -0.14,-0.8 c 0.15,-0.53 0.27,-1.05 0.36,-1.58 l 0.2,-0.93 0.35,-1.32 0.78,-1.39 c 0.64,-0.45 1.24,-0.95 1.79,-1.47 0.26,-0.16 0.51,-0.31 0.76,-0.47 l 0.39,-0.14 v 0 l 2.71,-0.98 c 0.98,-0.36 1.92,-0.79 2.79,-1.3 0.49,-0.1 0.96,-0.23 1.43,-0.38 v 0.01 l 1.91,-0.6 2.01,-0.28 v 0 l 5.08,-0.55 2.59,-0.07 8.66,-0.22 c 2.16,-0.05 4.21,-0.49 6.11,-1.25 l 0.69,-0.26 c 0.81,-0.29 1.58,-0.63 2.32,-1.02 v 0 l 1.8,-0.96 c 0.63,-0.34 1.24,-0.71 1.82,-1.12 l 0.02,0.03 1.34,-0.94 c 1.57,-1.11 2.91,-2.43 3.99,-3.9 l 1.81,-1.27 c 1.15,-0.81 2.18,-1.74 3.07,-2.75 l 1.74,-1.83 c 0.95,-1 1.75,-2.08 2.42,-3.22 l 1.44,-2.28 c 0.89,-1.42 1.55,-2.92 1.99,-4.45 l 0.02,-0.06 0.29,-0.63 c 0.66,-1.42 1.12,-2.88 1.38,-4.36 l 0.05,0.01 0.14,-0.8 0.29,-0.8 c 0.13,-0.34 0.24,-0.68 0.35,-1.03 l 0.21,-0.57 0.55,-1.19 0.11,-0.22 2.27,-0.38 c 2.3,-0.39 4.42,-1.21 6.29,-2.37 7.32,-3.96 10.66,-12.42 8.43,-20.11 v 0 l -11.5,-39.83 c -0.34,-1.17 -0.8,-2.28 -1.34,-3.32 l 0.04,-0.02 -5.26,-9.9 c -1.69,-3.18 -4.22,-5.62 -7.17,-7.19 l -5.91,-3.73 c -1.82,-1.13 -3.75,-1.9 -5.73,-2.31 v 0 l -15.58,-3.26 c -0.66,-0.13 -1.33,-0.23 -1.98,-0.29 l -14.71,-1.55 -6.71,-2.64 -1.68,-1.6 -3.72,-4.53 -3.09,-11.46 -0.67,-11.84 0.43,-4.28 0.27,-0.88 5.51,-10.55 2.04,-3.45 c 1.01,-1.73 1.69,-3.57 2.06,-5.43 l 0.32,-1.45 c 0.38,-1.71 0.49,-3.43 0.36,-5.1 h 0.05 l -3.86,-48.83 0.09,-0.51 0.24,-0.58 2.78,-3.9 c 0.4,-0.57 0.76,-1.15 1.08,-1.74 l 2.49,-4.39 c 0.37,-0.65 0.69,-1.31 0.97,-1.99 l 1.36,-2.93 c 2.86,-6.09 1.86,-12.99 -1.98,-17.96 l 0.01,-0.01 -30.39,-39.47 -26.17,-37.81 -8.53,-14.38 -24.52,-54.55 -8.24,-19.97 -11.26,-35.73 c -0.06,-0.2 -0.13,-0.41 -0.2,-0.61 v 0 l -11.13,-31.56 -5.32,-20 -0.01,-0.06 -3.63,-16.01 -0.04,-0.38 0.02,-0.01 -0.59,-5.45 c -0.3,-2.85 -1.27,-5.45 -2.73,-7.69 l 0.01,-0.01 -12.06,-18.41 -12.15,-21.6 -14.11,-32.01 v 0 l -21.32,-49.61 -0.1,-0.21 -18.23,-46.2 -12.67,-32.51 c -0.11,-0.28 -0.23,-0.55 -0.35,-0.83 l -6.35,-16.36 v 0 l -5.11,-14.13 -18.92,-67.01 c -0.2,-0.74 -0.46,-1.45 -0.75,-2.14 l -13.02,-37.57 -11.53,-43.28 c -0.12,-0.43 -0.25,-0.86 -0.4,-1.28 l -16.2,-52.33 -0.04,-0.12 0.04,-0.02 -18.85,-59.7 c -0.11,-0.34 -0.22,-0.67 -0.35,-1 l -13.45,-41.3 0.02,-0.01 -5.47,-18.09 c -0.24,-0.79 -0.54,-1.55 -0.87,-2.28 l -8.88,-22.49 c -0.4,-1.05 -0.9,-2.03 -1.48,-2.94 l -16.64,-30.44 0.03,-0.01 -36.86,-68.38 -0.14,-0.26 v -0.01 l -13.48,-24.07 -6.77,-16.34 -0.18,-0.43 -8.27,-20.86 0.02,-0.01 -5.89,-16.72 c -0.61,-1.71 -1.45,-3.27 -2.49,-4.65 l -13,-20.75 c -0.1,-0.15 -0.2,-0.31 -0.3,-0.46 l 0.02,-0.01 -16.47,-24.5 -19.09,-29.48 -4.1,-7.72 -8.87,-20.41 c -0.35,-0.81 -0.75,-1.57 -1.2,-2.3 l 0.04,-0.02 -8.08,-13.02 c -0.23,-0.35 -0.46,-0.7 -0.7,-1.03 l -4.92,-7.2 c -0.62,-0.9 -1.3,-1.72 -2.04,-2.47 l -14.28,-15.2 -13.15,-17.63 -10.1,-16.98 c -0.22,-0.37 -0.44,-0.72 -0.68,-1.06 l 0.07,-0.04 -13.73,-19.71 c -1.06,-1.52 -2.31,-2.82 -3.7,-3.88 l -8.78,-15.4 c -0.29,-0.52 -0.61,-1.02 -0.95,-1.5 l -28.97,-45.46 c -0.74,-1.16 -1.59,-2.2 -2.53,-3.12 l 0.02,-0.01 -22.91,-22.22 c -3.58,-3.48 -8.27,-5.11 -12.89,-4.91 l -31.61,-0.08 -56.09,0.06 h -0.07 v 0 l -24.17,0.15 v 0 l -94.77,0.14 h -0.07 v 0 l -43.64,0.2 -81.11,-0.67 -63.4,-0.66 c -0.18,-0.01 -0.36,0 -0.54,0 v 0 l -3.19,0.08 h -0.05 l -21.23,0.09 -10.87,-0.17 -0.46,-0.01 -75.45,-0.34 h -0.07 v 0 l -63.85,-0.21 -62.92,0.23 -0.06,0.01 v -0.01 l -43.31,0.19 -51.93,-0.04 -113.28,0.15 -21.88,-0.36 c -0.16,0 -0.32,0 -0.49,0 l -31.25,-0.11 h -0.07 v 0 l -87.54,0.41 -0.33,0.01 v -0.01 l -0.92,0.02 h -0.03 l -59.3,0.15 h -0.13 v 0 l -60.61,0.63 -49.59,-0.1 -56.09,0.06 -72.37,0.01 -24.95,-0.26 v -0.01 l -32.84,-0.53 c -0.2,0 -0.39,0 -0.59,0 l -56.35,0.53 h -0.02 l -60.94,0.18 -57.45,0.1 c -9.59,0 -17.37,7.77 -17.37,17.36 0,2.41 0.49,4.71 1.39,6.8 l -0.02,0.01 15.3,36.02 c 0.03,0.21 0.07,0.43 0.1,0.64 l -0.03,0.01 0.54,3.17 c 0.38,2.3 1.2,4.41 2.35,6.28 l 0.45,0.83 1.91,3.6 c 0.08,0.15 0.17,0.3 0.25,0.45 l -0.05,0.02 3.35,5.85 0.19,0.32 4.04,7.19 c 0.32,0.57 0.67,1.12 1.04,1.64 l 2.52,4.07 -0.03,0.02 2.38,4.04 c 0.1,0.16 0.19,0.31 0.29,0.46 l -0.01,0.01 4.27,6.73 0.03,0.04 0.51,0.85 0.72,2.63 1.45,6.35 c 0.05,0.27 0.12,0.55 0.2,0.82 v 0 l 0.5,1.8 c 0.21,0.75 0.46,1.48 0.76,2.18 h -0.01 l 0.97,2.26 c 0.47,1.12 1.06,2.17 1.73,3.13 l 1.5,2.43 -0.01,0.01 0.99,3.16 c 0.6,1.94 1.51,3.69 2.66,5.23 l 0.67,0.94 3.11,4.43 1.66,5.72 0.04,0.11 1.35,5.23 c 0.25,0.99 0.59,1.95 0.99,2.85 l -0.04,0.02 5.32,11.72 c 0.1,0.22 0.21,0.45 0.31,0.67 l 4.64,11.32 h -0.01 l 4.89,13.1 c 0.11,0.3 0.23,0.59 0.35,0.88 l -0.01,0.01 5.26,12.03 4.13,11 c 0.1,0.27 0.21,0.53 0.32,0.79 l -0.05,0.03 3.88,9.02 c 0.16,0.38 0.34,0.75 0.52,1.11 l 4.76,11.64 0.05,0.11 -0.05,0.02 3.4,8.12 c 0.07,0.16 0.13,0.33 0.2,0.48 l 7.03,17.37 0.17,0.4 -0.04,0.02 4.86,11.26 c 0.07,0.18 0.15,0.36 0.24,0.54 l 3.94,10.14 c 0.08,0.2 0.16,0.4 0.24,0.6 l -0.04,0.01 4.85,11.28 c 0.16,0.38 0.34,0.76 0.53,1.12 l 3.89,8.87 4.14,9.42 2.26,6.26 c 0.11,0.3 0.23,0.59 0.35,0.88 v 0 l 0.96,2.26 c 0.87,2.02 2.07,3.81 3.52,5.3 l 1.01,1.15 4.65,6.96 0.1,0.19 h -0.01 l 3.73,7.83 -0.01,0.01 3.25,7.2 0.61,2.45 0.08,0.34 h -0.02 l 4.54,16.75 c 0.08,0.33 0.18,0.65 0.29,0.97 l 7.44,28.38 c 0.1,0.7 0.25,1.38 0.43,2.04 h -0.01 l 9.54,34.42 c 0.07,0.22 0.14,0.46 0.21,0.68 l 6.5,23.8 2.43,14.11 0.68,44.06 -1.68,112.57 v 0 l -3.96,113.18 c -0.02,0.46 -0.01,0.91 0,1.36 l 0.1,3.59 -0.19,27.7 v 0 l -2.49,153.27 -1.58,97.37 h -0.02 l -0.35,4.11 c -0.06,0.78 -0.08,1.55 -0.04,2.31 l -4.24,152.87 c -0.01,0.28 -0.01,0.55 -0.01,0.82 l -0.7,97.11 v 0 l -0.47,53.37 c -0.01,0.73 0.03,1.46 0.11,2.17 h -0.04 l 1.17,9.7 c -1.86,2.75 -2.88,5.97 -2.97,9.26 v 0 l -2.65,93.08 c -0.01,0.22 -0.01,0.43 -0.01,0.64 l -1.43,104.55 c 0,0.2 0,0.4 0.01,0.61 h -0.01 l 0.13,5.01 c 0.07,2.92 0.86,5.65 2.18,8.03 v 0 l 40.13,71.94 c 4.31,7.74 13.65,10.91 21.67,7.68 l 36.21,-14.05 1.68,4.4 c 0.08,0.2 0.16,0.39 0.24,0.58 l 52.25,149.45 c 0.05,0.15 0.11,0.31 0.17,0.46 l -0.03,0.01 2.72,7.14 38.82,137.57 c 0.39,1.38 0.93,2.67 1.6,3.86 l 5.29,11.05 17.79,48.73 -0.01,0.01 10.84,31.64 c 0.1,0.31 0.22,0.62 0.34,0.92 l 34.07,97.5 15.29,52.31 c 0.16,0.54 0.34,1.07 0.54,1.58 l 18.46,49.33 c 0.09,0.22 0.18,0.45 0.27,0.67 l 8.64,21.79 c 0.26,0.66 0.56,1.29 0.89,1.9 h -0.01 l 10.53,19.34 0.03,0.05 -0.03,0.02 14.82,26.98 c 0.41,0.75 0.86,1.45 1.36,2.11 v 0 l 11.34,15.05 12.41,19.96 c 0.41,0.66 0.86,1.29 1.34,1.87 l 5.3,7.37 26.39,62.22 c 0.51,1.2 1.13,2.31 1.85,3.33 l -0.01,0.01 49.22,69.31 -9.03,26.57 c -0.11,0.34 -0.22,0.68 -0.31,1.04 l -4.65,13.41 v 0 l -15.76,43.71 c -3.23,9.03 1.46,18.97 10.48,22.2 0.71,0.25 1.41,0.46 2.12,0.61 h -0.01 l 13.39,2.99 -1.89,52.67 c -0.05,1.55 0.1,3.05 0.43,4.5 h -0.01 l 9.23,40.35 c 0.79,3.48 2.59,6.48 5.01,8.75 l 36.39,37.06 19.18,49.82 c 3.42,8.95 13.45,13.43 22.4,10.01 0.41,-0.16 0.81,-0.33 1.21,-0.52 l 0.02,0.04 158.15,-74.7 0.06,-0.02 0.01,0.02 78.84,-37.56 c 0.46,-0.22 0.9,-0.46 1.34,-0.71 l 72.63,-34.87 82.13,-25.48 c 2.74,-0.84 5.12,-2.3 7.04,-4.18 l 60.88,-58.45 c 1.34,-1.29 2.43,-2.74 3.27,-4.3 v 0.01 l 2.62,-4.86 z m 91.27,-123.03 -114.72,97.3 11.24,13.28 -13.14,-11.38 -30.03,34.82 c -1.05,1.1 -1.96,2.35 -2.72,3.75 l -2.2,4.09 -56.02,53.78 -79.27,24.6 0.01,0.02 c -0.81,0.25 -1.61,0.56 -2.39,0.94 l -73.95,35.48 c -0.43,0.17 -0.86,0.35 -1.29,0.55 l -78.84,37.57 0.01,0.03 -141.21,66.7 -13.38,-34.78 c -0.8,-2.55 -2.2,-4.96 -4.2,-6.99 l -35.85,-36.5 -7.65,-33.42 2.31,-64.75 h -0.01 c 0.3,-8.21 -5.29,-15.73 -13.61,-17.57 l -8.24,-1.84 9.08,-25.2 v 0 l 0.07,-0.2 4.69,-13.54 c 0.17,-0.41 0.33,-0.83 0.48,-1.26 l 11.87,-34.95 -0.01,-0.01 c 1.73,-5.1 1.06,-10.93 -2.3,-15.65 l -53.33,-75.11 -26.21,-61.81 c -0.52,-1.32 -1.22,-2.59 -2.08,-3.79 l -6.44,-8.95 -12.63,-20.31 c -0.32,-0.54 -0.67,-1.07 -1.06,-1.58 l -11.05,-14.67 -14.21,-25.86 -0.03,0.01 -10.02,-18.41 -8.21,-20.71 -0.01,-0.04 -18.37,-49.07 -15.15,-51.82 c -0.12,-0.47 -0.26,-0.94 -0.42,-1.4 l -34.16,-97.78 c -0.06,-0.21 -0.13,-0.41 -0.2,-0.61 l -10.84,-31.64 h -0.01 l -0.12,-0.34 -18.14,-49.69 h -0.02 c -0.19,-0.53 -0.41,-1.06 -0.66,-1.58 l -5.53,-11.53 -38.52,-136.54 c -0.18,-0.75 -0.4,-1.49 -0.68,-2.23 l -2.93,-7.67 -0.03,0.01 -52.1,-149 c -0.14,-0.51 -0.31,-1.01 -0.5,-1.51 l -2.93,-7.67 -0.04,0.01 -4.68,-12.52 c -0.07,-0.22 -0.15,-0.44 -0.23,-0.67 -3.47,-8.94 -13.53,-13.39 -22.48,-9.94 l -38.76,15.04 -30.68,-55.01 -0.01,-0.46 1.42,-104.11 0.01,-0.13 2.4,-84.44 c 3.15,-3.59 4.82,-8.44 4.22,-13.55 l -2.23,-18.41 0.45,-51.86 v 0 -0.07 l 0.71,-97.1 v -0.08 l 4.25,-152.89 0.04,-0.39 0.35,-4.11 h -0.05 c 0.02,-0.39 0.04,-0.77 0.05,-1.16 l 1.6,-98.52 2.48,-153.27 v 0 -0.21 l 0.2,-27.82 c 0.01,-0.31 0.01,-0.62 0,-0.93 l -0.09,-3.55 3.94,-112.78 v 0 -0.34 l 1.69,-113.12 v 0 -0.41 l -0.68,-44.39 c 0,-0.17 0,-0.32 0,-0.49 l -0.01,-0.2 c 0.05,-1.21 -0.02,-2.44 -0.24,-3.68 l -2.66,-15.43 -0.05,0.01 c -0.09,-0.55 -0.21,-1.1 -0.36,-1.64 l -6.84,-25.06 c -0.06,-0.27 -0.13,-0.55 -0.21,-0.83 l -9.14,-33.01 c -0.09,-0.53 -0.2,-1.05 -0.34,-1.58 l -7.82,-29.81 c -0.07,-0.37 -0.16,-0.75 -0.25,-1.13 l -4.54,-16.75 h -0.01 l -0.78,-3.11 c -0.25,-1.22 -0.64,-2.44 -1.17,-3.62 l -3.87,-8.58 -0.01,0.01 -0.12,-0.28 -3.86,-8.11 -0.03,0.02 c -0.12,-0.26 -0.24,-0.51 -0.38,-0.76 l -0.67,-1.26 c -0.34,-0.69 -0.73,-1.38 -1.17,-2.04 l -5.69,-8.52 v 0.01 c -0.42,-0.62 -0.86,-1.21 -1.36,-1.78 l -0.44,-0.5 -2.06,-5.69 v 0 c -0.13,-0.34 -0.26,-0.68 -0.41,-1.02 l -4.36,-9.92 -3.93,-8.96 c -0.11,-0.3 -0.23,-0.6 -0.36,-0.9 l -4.84,-11.27 -0.03,0.01 -3.73,-9.58 c -0.18,-0.58 -0.39,-1.15 -0.63,-1.72 l -4.86,-11.27 -0.02,0.01 -6.89,-17.06 c -0.1,-0.27 -0.2,-0.53 -0.32,-0.8 l -3.39,-8.13 -0.05,0.02 -4.72,-11.56 c -0.19,-0.58 -0.4,-1.17 -0.65,-1.74 l -3.88,-9.03 -0.02,0.01 -3.86,-10.28 c -0.17,-0.51 -0.36,-1.03 -0.59,-1.54 l -5.25,-12.02 -4.63,-12.37 -0.01,0.01 c -0.06,-0.16 -0.13,-0.32 -0.19,-0.48 l -4.84,-11.85 c -0.21,-0.62 -0.44,-1.24 -0.71,-1.85 l -4.82,-10.62 -0.92,-3.57 c -0.08,-0.37 -0.17,-0.74 -0.28,-1.11 l -2.2,-7.57 c -0.47,-2.16 -1.38,-4.27 -2.74,-6.2 l -4.12,-5.85 -0.17,-0.54 h -0.02 l -0.35,-1.27 h -0.01 c -0.42,-1.55 -1.08,-3.06 -1.96,-4.5 l -2.57,-4.16 -0.1,-0.22 -0.06,-0.22 -1.41,-6.21 c -0.07,-0.32 -0.14,-0.63 -0.23,-0.95 l -1.21,-4.37 c -0.4,-1.87 -1.1,-3.69 -2.13,-5.42 l -1.73,-2.84 c -0.12,-0.21 -0.25,-0.43 -0.38,-0.64 l -4.28,-6.73 v 0 l -2.11,-3.57 -0.03,0.02 -0.17,-0.29 -2.71,-4.37 c -0.07,-0.14 -0.14,-0.28 -0.21,-0.41 l -4.09,-7.25 c -0.09,-0.17 -0.18,-0.35 -0.28,-0.53 l -3.34,-5.84 -0.04,0.02 -1.14,-2.15 c -0.05,-2.15 -0.5,-4.32 -1.39,-6.42 l -6.23,-14.67 31.19,-0.05 61.1,-0.19 v 0 h 0.14 l 56.27,-0.52 32.69,0.53 v 0 h 0.14 l 25.08,0.27 v 0 h 0.14 l 72.5,-0.02 56.09,-0.06 49.7,0.11 v 0 h 0.14 l 60.63,-0.63 59.28,-0.15 c 0.24,0.01 0.49,0.01 0.73,0 l 0.91,-0.03 v 0 l 87.17,-0.4 31.12,0.11 h 0.04 l 21.89,0.36 v 0 h 0.27 l 113.54,-0.15 51.98,0.04 v 0 h 0.07 l 43.32,-0.19 62.85,-0.23 63.76,0.2 h 0.02 l 75.46,0.35 h 0.04 l 10.95,0.18 v 0 h 0.34 l 21.55,-0.09 c 0.23,0 0.45,0 0.67,-0.01 l 3.03,-0.07 63.02,0.66 81.18,0.67 v 0 h 0.2 l 43.78,-0.2 94.77,-0.14 v 0 h 0.07 l 24.17,-0.16 56.02,-0.05 25.29,0.07 16.5,16 27.82,43.67 10.11,17.73 c 1.1,2.16 2.67,4.12 4.69,5.73 l 0.75,0.6 12.28,17.64 0.03,-0.01 9.48,15.92 c 0.49,1.04 1.08,2.04 1.8,2.99 l 13.68,18.35 0.03,-0.02 c 0.39,0.53 0.8,1.03 1.27,1.52 l 14.51,15.45 4.16,6.09 7.47,12.03 8.34,19.2 c 0.24,0.61 0.51,1.2 0.82,1.78 l 4.47,8.39 c 0.31,0.65 0.67,1.29 1.08,1.91 l 19.45,30.06 v 0 l 0.14,0.2 16.59,24.65 0.01,-0.01 12.35,19.7 5.34,15.15 0.04,-0.02 c 0.08,0.22 0.15,0.42 0.23,0.63 l 8.52,21.47 c 0.1,0.29 0.21,0.57 0.32,0.85 l 6.88,16.61 c 0.34,0.99 0.76,1.96 1.3,2.9 l 13.85,24.72 v -0.01 l 36.71,68.1 0.03,-0.01 0.04,0.08 16.59,30.34 8.57,21.72 5.37,17.73 0.02,-0.01 0.11,0.35 13.58,41.68 c 0.06,0.24 0.13,0.47 0.2,0.7 l 18.85,59.7 0.04,-0.01 16.2,52.29 11.54,43.31 h 0.04 c 0.1,0.41 0.23,0.82 0.37,1.23 l 13.4,38.69 0.04,0.13 19.04,67.46 0.01,-0.01 c 0.12,0.42 0.25,0.83 0.4,1.23 l 5.4,14.91 v 0 l 0.13,0.34 6.51,16.77 c 0.1,0.3 0.21,0.6 0.33,0.91 l 12.67,32.5 18.26,46.26 c 0.14,0.42 0.3,0.83 0.47,1.24 l 21.33,49.61 h 0.01 l 0.05,0.14 14.48,32.81 v 0.02 l 0.04,0.08 v 0 c 0.23,0.51 0.47,1.01 0.75,1.5 l 12.71,22.61 c 0.25,0.46 0.51,0.9 0.8,1.34 l 10.07,15.38 0.08,0.68 c 0.02,1.13 0.16,2.27 0.42,3.43 l 3.97,17.51 c 0.08,0.41 0.17,0.82 0.27,1.23 l 5.41,20.31 c 0.14,0.63 0.33,1.26 0.55,1.89 l 11.2,31.78 11.3,35.88 0.03,-0.01 c 0.15,0.48 0.32,0.96 0.52,1.44 l 8.75,21.21 v 0 c 0.07,0.16 0.13,0.31 0.2,0.48 l 24.75,55.05 c 0.35,0.89 0.77,1.77 1.27,2.61 l 9.06,15.28 0.02,-0.01 c 0.2,0.34 0.42,0.69 0.66,1.03 l 26.87,38.83 c 0.21,0.3 0.43,0.6 0.65,0.9 l 23.61,30.65 -1.18,1.64 c -0.96,1.23 -1.78,2.6 -2.4,4.11 l -1.49,3.6 c -0.61,1.33 -1.06,2.77 -1.32,4.29 l -0.67,3.87 c -0.34,1.6 -0.46,3.28 -0.33,5 l 3.69,46.6 c -0.1,0.17 -0.19,0.33 -0.27,0.5 l -6.35,12.13 c -0.57,1.04 -1.05,2.16 -1.41,3.35 l -1.01,3.32 c -0.46,1.31 -0.78,2.7 -0.92,4.15 l -0.67,6.63 c -0.15,1.09 -0.2,2.2 -0.13,3.34 l 0.79,14.16 c 0.01,1.45 0.2,2.93 0.59,4.4 l 4.36,16.14 c 0.58,2.54 1.74,5 3.51,7.16 l 6.58,8.04 0.03,-0.02 c 0.45,0.55 0.94,1.08 1.47,1.59 l 4.63,4.39 c 1.68,1.75 3.77,3.16 6.17,4.1 l 11.97,4.71 v -0.01 c 1.43,0.56 2.96,0.93 4.56,1.1 l 16.43,1.74 11.7,2.44 0.31,0.19 2.4,4.52 6.46,22.35 c -0.65,0.5 -1.27,1.06 -1.85,1.68 l -1.49,1.57 c -0.54,0.53 -1.04,1.11 -1.51,1.73 l -1.43,1.87 c -1.77,1.73 -3.2,3.87 -4.12,6.35 l -0.62,1.67 -0.39,0.83 c -0.27,0.53 -0.5,1.08 -0.71,1.65 l -0.45,1.21 c -0.18,0.37 -0.33,0.76 -0.48,1.16 l -0.57,1.55 c -0.49,1.18 -0.86,2.43 -1.09,3.75 l -0.04,0.16 -0.17,0.42 -0.99,0.7 v 0.01 c -0.28,0.19 -0.55,0.39 -0.82,0.6 l -1.78,1.42 v 0.01 c -0.25,0.2 -0.5,0.41 -0.74,0.63 l -3.33,0.09 -2.74,0.07 c -0.76,-0.02 -1.54,0 -2.33,0.09 l -5.46,0.59 0.01,0.01 -0.48,0.06 -3.27,0.45 c -1.23,0.1 -2.46,0.34 -3.68,0.73 l -2.27,0.7 -1.6,0.31 c -2.36,0.43 -4.68,1.37 -6.78,2.83 l -1.11,0.25 0.01,0.02 c -2.46,0.55 -4.84,1.65 -6.95,3.31 l -0.27,0.22 -0.73,0.39 0.02,0.02 c -1.52,0.81 -2.95,1.86 -4.22,3.14 l -0.53,0.34 0.03,0.05 c -1.96,1.24 -3.69,2.89 -5.07,4.93 l -1.67,2.45 c -0.46,0.61 -0.89,1.27 -1.28,1.95 l -1.13,1.99 -0.43,0.7 c -0.9,1.35 -1.62,2.86 -2.12,4.49 l -0.42,1.37 0.02,0.01 c -0.08,0.27 -0.16,0.54 -0.23,0.81 l -0.7,2.73 c -0.1,0.34 -0.19,0.68 -0.27,1.03 l -0.18,0.84 c -1.01,2.27 -1.55,4.8 -1.48,7.45 l 0.02,0.91 0.02,0.85 c -0.04,1.12 0.04,2.27 0.23,3.42 l 0.53,3.18 0.54,3.18 h 0.02 l 0.37,2.96 0.06,2.33 0.09,3.45 c -0.08,1.94 0.17,3.91 0.78,5.87 l 0.88,2.82 0.26,1.13 c 0.06,0.31 0.14,0.62 0.23,0.93 l 0.4,1.46 -0.46,10.64 c -0.18,0.73 -0.33,1.5 -0.41,2.28 l -0.05,0.38 -0.06,0.14 0.02,0.01 c -0.18,0.4 -0.36,0.81 -0.52,1.23 -1.31,0.66 -2.56,1.49 -3.7,2.51 -7.18,6.36 -7.86,17.33 -1.5,24.51 l 29.58,33.44 0.01,-0.01 0.19,0.22 33.4,36.51 c 0.54,0.68 1.14,1.33 1.8,1.94 l 101.62,94.4 5.1,9.24 72.42,171.47 -40.75,31.59 -2.51,1.51 0.01,0.01 c -0.51,0.31 -1.01,0.64 -1.5,1.01 l -3.14,2.36 0.02,0.02 -74.06,54.74 c -0.17,0.12 -0.33,0.23 -0.5,0.35 l -50.57,37.31 -55.96,41.09 0.02,0.04 -0.22,0.17 -88.99,67.69 c -0.34,0.23 -0.67,0.46 -1,0.71 l -29.52,22.64 0.02,0.03 -0.22,0.17 -0.94,0.74 c -2.81,1.94 -5.08,4.73 -6.37,8.17 l -3.48,9.15 c -0.48,1.08 -0.85,2.22 -1.11,3.43 l -45.72,210.45 0.03,0.01 -14.42,63.5 -2.29,-6.59 c -0.08,-0.29 -0.17,-0.58 -0.26,-0.87 l -6.43,-19.44 -0.03,0.01 c -0.06,-0.16 -0.12,-0.33 -0.17,-0.49 l -4.42,-12.2 v 0.01 c -0.14,-0.39 -0.3,-0.78 -0.47,-1.17 l -4.61,-10.3 c -0.28,-0.68 -0.6,-1.36 -0.97,-2.01 l -6.58,-11.55 -2.92,-7 -6.73,-20.14 c -0.42,-1.58 -1.06,-3.12 -1.94,-4.58 l -9.94,-16.51 -12.2,-21.66 -0.03,0.01 c -0.3,-0.54 -0.63,-1.06 -1,-1.58 l -9.01,-12.59 -6.13,-13.01 -6.19,-18.24 -3.46,-17.56 h -0.01 l -0.06,-0.27 -3.1,-14.51 h -0.03 c -0.04,-0.16 -0.07,-0.32 -0.11,-0.48 l -1.42,-5.88 c -0.46,-2.18 -1.35,-4.31 -2.7,-6.26 -5.45,-7.89 -16.28,-9.87 -24.17,-4.42 l -132.15,90.89 -51.57,22.6 c -0.67,0.24 -1.33,0.52 -1.97,0.86 l -70.68,35.99 0.03,0.06 -0.16,0.08 -22.59,11.8 c -0.29,0.12 -0.57,0.25 -0.86,0.39 l -63.05,30.79 0.02,0.05 -0.02,0.01 -39.3,19.33 c -0.82,0.35 -1.63,0.77 -2.42,1.27 l -36.8,23.28 v 0.01 l -68.23,40.05 -5.32,-20.34 v 0 l -6.32,-28.29 c -0.11,-0.66 -0.25,-1.31 -0.43,-1.97 l -6.74,-23.89 -3.05,-23.98 0.39,-15.29 c 0.11,-1.19 0.11,-2.4 -0.04,-3.63 l -1.1,-9.45 -0.05,-18.79 c 0,-0.23 0,-0.47 0,-0.71 l -0.51,-19.74 c 0.02,-1.03 -0.05,-2.09 -0.22,-3.15 l -3.24,-19.52 h -0.02 c -0.05,-0.32 -0.11,-0.64 -0.19,-0.95 l -6.68,-29.93 v 0 c -0.09,-0.43 -0.21,-0.86 -0.34,-1.29 l -7.15,-23.42 c -0.61,-2.58 -1.82,-5.05 -3.64,-7.21 -6.21,-7.33 -17.19,-8.25 -24.52,-2.04" /><path
         id="path20"
         style="fill:#9f1b29;fill-opacity:1;fill-rule:nonzero;stroke:none"
         d="m 2449.77,3383.32 c 53.84,0 100.11,-91.02 131.39,-238.19 29.84,-140.38 48.29,-334 48.29,-547.58 0,-213.57 -18.45,-407.19 -48.29,-547.57 -31.28,-147.17 -77.55,-238.19 -131.39,-238.19 -53.84,0 -100.11,91.02 -131.39,238.19 -29.83,140.38 -48.29,334 -48.29,547.57 0,213.58 18.46,407.2 48.29,547.58 31.28,147.17 77.55,238.19 131.39,238.19 z m 99.96,-244.85 c -27.93,131.4 -63.45,212.67 -99.96,212.67 -36.5,0 -72.03,-81.27 -99.96,-212.67 -29.37,-138.18 -47.54,-329.41 -47.54,-540.92 0,-211.5 18.17,-402.72 47.54,-540.91 27.93,-131.4 63.46,-212.67 99.96,-212.67 36.51,0 72.03,81.27 99.96,212.67 29.38,138.19 47.54,329.41 47.54,540.91 0,211.51 -18.16,402.74 -47.54,540.92" /><path
         id="path22"
         style="fill:#9f1b29;fill-opacity:1;fill-rule:nonzero;stroke:none"
         d="m 3093.39,3048.2 c 30.88,-44.09 -17.12,-134.18 -119.69,-244.17 -97.78,-104.84 -245.81,-231 -420.92,-353.62 -175.09,-122.59 -344.24,-218.53 -476.19,-274.54 -138.46,-58.78 -239.55,-73.07 -270.44,-28.96 -30.87,44.1 17.13,134.18 119.7,244.17 97.77,104.85 245.8,231.01 420.92,353.62 175.08,122.6 344.24,218.54 476.19,274.55 138.46,58.78 239.54,73.07 270.43,28.95 z m -143.2,-222.3 c 91.65,98.29 137.87,174.04 116.93,203.95 -20.93,29.89 -107.9,12.36 -231.59,-40.14 -130.2,-55.27 -297.3,-150.07 -470.41,-271.28 -173.09,-121.2 -319.3,-245.79 -415.76,-349.22 -91.66,-98.29 -137.88,-174.03 -116.94,-203.94 20.94,-29.9 107.91,-12.37 231.59,40.14 130.2,55.26 297.29,150.06 470.42,271.28 173.09,121.2 319.3,245.78 415.76,349.21" /><path
         id="path24"
         style="fill:#9f1b29;fill-opacity:1;fill-rule:nonzero;stroke:none"
         d="m 1832.42,3029.85 c -20.94,-29.91 25.28,-105.66 116.94,-203.95 96.46,-103.43 242.67,-228.01 415.76,-349.21 173.11,-121.22 340.21,-216.02 470.41,-271.28 123.69,-52.51 210.66,-70.04 231.59,-40.14 20.94,29.91 -25.28,105.65 -116.93,203.94 -96.46,103.43 -242.67,228.02 -415.76,349.22 -173.13,121.21 -340.22,216.01 -470.42,271.28 -123.68,52.5 -210.65,70.03 -231.59,40.14 z m 93.43,-225.82 c -102.57,109.99 -150.57,200.08 -119.7,244.17 30.89,44.12 131.98,29.83 270.44,-28.95 131.95,-56.01 301.1,-151.95 476.19,-274.55 175.11,-122.61 323.14,-248.77 420.92,-353.62 102.57,-109.99 150.57,-200.07 119.69,-244.17 -30.89,-44.11 -131.97,-29.82 -270.43,28.96 -131.95,56.01 -301.11,151.95 -476.19,274.54 -175.12,122.62 -323.15,248.78 -420.92,353.62" /><path
         id="path26"
         style="fill:#ffffff;fill-opacity:1;fill-rule:evenodd;stroke:none"
         d="m 2289.66,2820.46 c 33.11,0 59.96,-26.85 59.96,-59.96 0,-33.12 -26.85,-59.96 -59.96,-59.96 -33.12,0 -59.96,26.84 -59.96,59.96 0,33.11 26.84,59.96 59.96,59.96" /><path
         id="path28"
         style="fill:#9f1b29;fill-opacity:1;fill-rule:nonzero;stroke:none"
         d="m 2289.66,2836.55 c 21,0 40.01,-8.51 53.77,-22.28 13.77,-13.76 22.28,-32.77 22.28,-53.77 0,-21 -8.51,-40.02 -22.28,-53.78 -13.76,-13.76 -32.77,-22.27 -53.77,-22.27 -21,0 -40.02,8.51 -53.78,22.27 -13.76,13.76 -22.27,32.78 -22.27,53.78 0,21 8.51,40.01 22.27,53.77 13.76,13.77 32.78,22.28 53.78,22.28 z m 31.02,-45.03 c -7.94,7.94 -18.91,12.85 -31.02,12.85 -12.12,0 -23.09,-4.91 -31.03,-12.85 -7.93,-7.94 -12.84,-18.91 -12.84,-31.02 0,-12.12 4.91,-23.09 12.84,-31.02 7.94,-7.94 18.91,-12.85 31.03,-12.85 12.11,0 23.08,4.91 31.02,12.85 7.94,7.93 12.85,18.91 12.85,31.02 0,12.11 -4.91,23.08 -12.85,31.02" /><path
         id="path30"
         style="fill:#ffffff;fill-opacity:1;fill-rule:evenodd;stroke:none"
         d="m 2948.67,2448.61 c 33.11,0 59.96,-26.84 59.96,-59.96 0,-33.11 -26.85,-59.96 -59.96,-59.96 -33.12,0 -59.96,26.85 -59.96,59.96 0,33.12 26.84,59.96 59.96,59.96" /><path
         id="path32"
         style="fill:#9f1b29;fill-opacity:1;fill-rule:nonzero;stroke:none"
         d="m 2948.67,2464.7 c 20.99,0 40.01,-8.51 53.77,-22.27 13.76,-13.77 22.28,-32.78 22.28,-53.78 0,-21 -8.52,-40.01 -22.28,-53.77 -13.76,-13.77 -32.78,-22.28 -53.77,-22.28 -21,0 -40.01,8.51 -53.78,22.28 -13.76,13.76 -22.28,32.77 -22.28,53.77 0,21 8.52,40.01 22.28,53.78 13.77,13.76 32.78,22.27 53.78,22.27 z m 31.02,-45.03 c -7.94,7.94 -18.91,12.85 -31.02,12.85 -12.12,0 -23.09,-4.91 -31.03,-12.85 -7.93,-7.94 -12.84,-18.9 -12.84,-31.02 0,-12.12 4.91,-23.09 12.84,-31.02 7.94,-7.94 18.91,-12.85 31.03,-12.85 12.12,0 23.08,4.91 31.02,12.85 7.94,7.93 12.85,18.9 12.85,31.02 0,12.12 -4.91,23.08 -12.85,31.02" /><path
         id="path34"
         style="fill:#ffffff;fill-opacity:1;fill-rule:evenodd;stroke:none"
         d="m 1895.31,2398.69 c 33.12,0 59.97,-26.84 59.97,-59.96 0,-33.11 -26.85,-59.96 -59.97,-59.96 -33.11,0 -59.95,26.85 -59.95,59.96 0,33.12 26.84,59.96 59.95,59.96" /><path
         id="path36"
         style="fill:#9f1b29;fill-opacity:1;fill-rule:nonzero;stroke:none"
         d="m 1895.31,2414.79 c 21,0 40.01,-8.52 53.78,-22.28 13.76,-13.77 22.28,-32.78 22.28,-53.78 0,-21 -8.52,-40.01 -22.28,-53.78 -13.77,-13.76 -32.78,-22.27 -53.78,-22.27 -21,0 -40.01,8.51 -53.77,22.27 -13.77,13.77 -22.28,32.78 -22.28,53.78 0,21 8.51,40.01 22.28,53.78 13.76,13.76 32.77,22.28 53.77,22.28 z m 31.03,-45.04 c -7.94,7.94 -18.91,12.85 -31.03,12.85 -12.11,0 -23.08,-4.91 -31.02,-12.85 -7.94,-7.93 -12.85,-18.9 -12.85,-31.02 0,-12.12 4.91,-23.09 12.85,-31.02 7.94,-7.94 18.91,-12.85 31.02,-12.85 12.12,0 23.09,4.91 31.03,12.85 7.93,7.93 12.84,18.9 12.84,31.02 0,12.11 -4.91,23.09 -12.84,31.02" /><path
         id="path38"
         style="fill:#9f1b29;fill-opacity:1;fill-rule:nonzero;stroke:none"
         d="m 887.504,3059.88 183.406,-743.83 c 0.48,-1.96 0.5,-3.93 0.13,-5.8 v -0.02 l -0.06,-0.26 -0.02,-0.09 -0.05,-0.19 -0.03,-0.15 -0.05,-0.16 -0.04,-0.16 -0.02,-0.09 -69.01,-285.83 c -0.07,-0.36 -0.15,-0.72 -0.26,-1.07 l -79.246,-328.3 c -1.734,-7.17 -8.961,-11.58 -16.133,-9.84 -4.73,1.14 -8.258,4.67 -9.617,9 l -221.543,615.26 c -0.926,2.59 -1.008,5.27 -0.387,7.74 l -0.031,0.01 186.828,744.43 c 1.797,7.17 9.067,11.54 16.242,9.74 5.196,-1.29 8.914,-5.47 9.891,-10.39 z m 149.606,-718.55 -51.286,208.03 -113.406,-106.87 z m -72.434,293.8 -34.137,138.46 -37.473,-43.25 z m -41.977,170.24 -38.636,156.71 -8.079,-209.03 0.641,-0.85 z m -10.293,-1038.33 18.11,75.03 -33.196,26.44 z m 25.035,103.73 25.375,105.09 -64.445,-73.97 z m 43.657,180.81 55.812,231.2 -175.644,-117.01 z m -261.828,212.56 46.703,-129.71 52.617,35.06 z m 56.039,-155.64 52.273,-145.16 32.863,-28.94 -31.222,210.02 z m 71.097,-197.44 7.133,-19.81 6.676,7.66 z m 17.532,-48.69 12.289,-34.12 -6.125,41.2 z m -7.895,1066.9 -28.172,-112.24 22.672,-30.14 z m -36.531,-145.56 -34.418,-137.14 62.832,72.5 0.984,25.54 z m -54.391,-216.72 -55.117,-219.62 123.324,96.39 z m 109.149,141.67 -9.129,-236.26 110.316,103.95 -100.285,133.35 z m -11.274,-291.78 -8.637,-223.56 178.741,119.08 z m -35.219,-219.19 8.282,214.29 -128.098,-100.11 z m 11.239,290.89 7.257,187.76 -67.847,-78.29 z m 19.172,-356.82 29.863,-200.91 82.09,94.22 -111.953,106.69" /><path
         id="path40"
         style="fill:#9f1b29;fill-opacity:1;fill-rule:nonzero;stroke:none"
         d="m 962.344,2968.28 c -7.059,2.14 -11.047,9.6 -8.906,16.66 2.14,7.05 9.597,11.04 16.656,8.9 l 242.006,-73.96 c 7.06,-2.15 11.05,-9.6 8.91,-16.66 -0.3,-0.98 -0.7,-1.9 -1.19,-2.76 l 0.04,-0.01 -24.59,-42.88 200.05,-75.94 c 6.91,-2.6 10.41,-10.32 7.8,-17.23 -2.6,-6.92 -10.32,-10.41 -17.23,-7.81 l -214.09,81.28 c -0.89,0.28 -1.76,0.66 -2.61,1.15 -6.42,3.67 -8.65,11.85 -4.97,18.27 l 24.05,41.94 -225.926,69.05" /><path
         id="path42"
         style="fill:#9f1b29;fill-opacity:1;fill-rule:nonzero;stroke:none"
         d="m 1011.96,3009.93 c -7.31,-0.98 -14.046,4.16 -15.03,11.47 -0.985,7.32 4.15,14.05 11.47,15.03 l 170.24,23.04 c 7.32,0.98 14.06,-4.15 15.04,-11.47 0.05,-0.39 0.08,-0.77 0.1,-1.16 v 0 l 1.54,-31.54 271.12,26.16 c 7.35,0.69 13.86,-4.7 14.56,-12.05 0.7,-7.35 -4.7,-13.87 -12.05,-14.56 l -284.56,-27.45 c -0.36,-0.05 -0.73,-0.09 -1.11,-0.1 -7.37,-0.35 -13.64,5.35 -13.99,12.72 l -1.5,30.99 -155.83,-21.08" /><path
         id="path44"
         style="fill:#9f1b29;fill-opacity:1;fill-rule:nonzero;stroke:none"
         d="m 975.891,3057.45 c -6.508,-3.51 -14.621,-1.07 -18.125,5.44 -3.5,6.51 -1.059,14.62 5.445,18.12 l 249.439,134.27 c 6.51,3.5 14.62,1.06 18.12,-5.45 0.47,-0.87 0.83,-1.76 1.09,-2.67 h 0.01 l 9.28,-32.53 299.6,181.64 c 6.31,3.82 14.52,1.8 18.33,-4.5 3.83,-6.31 1.81,-14.52 -4.5,-18.34 L 1240.99,3143.3 c -1.25,-0.91 -2.68,-1.62 -4.25,-2.07 -7.12,-2.02 -14.53,2.1 -16.55,9.22 l -9.52,33.37 -234.779,-126.37" /><path
         id="path46"
         style="fill:#9f1b29;fill-opacity:1;fill-rule:nonzero;stroke:none"
         d="m 923.539,3088.62 c -5.035,-5.41 -13.5,-5.71 -18.91,-0.68 -5.41,5.03 -5.715,13.5 -0.684,18.91 l 129.125,138.25 c 5.03,5.41 13.5,5.71 18.91,0.68 0.8,-0.74 1.49,-1.57 2.06,-2.44 l 19.48,-25.99 350.24,369.17 c 5.09,5.36 13.56,5.57 18.91,0.48 5.35,-5.09 5.56,-13.56 0.47,-18.91 l -361.12,-380.65 -0.02,0.01 c -0.5,-0.52 -1.05,-1.02 -1.66,-1.47 -5.9,-4.43 -14.27,-3.23 -18.7,2.67 l -19.89,26.54 -118.211,-126.57" /><path
         id="path48"
         style="fill:#9f1b29;fill-opacity:1;fill-rule:nonzero;stroke:none"
         d="m 910.246,1688.66 c -7.406,0 -13.406,6.01 -13.406,13.41 0,7.41 6,13.41 13.406,13.41 6.52,0 12.793,0.61 19.063,1.23 14.968,1.47 29.937,2.93 45.257,-1.86 14.586,-4.55 26.074,-13.3 37.544,-22.04 9.96,-7.59 19.92,-15.17 30.43,-18.08 20.44,-5.65 44.72,3.83 65.6,11.99 16.46,6.42 31.16,12.17 44.36,11.28 17.49,-1.18 36.48,-10.37 56.59,-20.11 20.49,-9.92 42.3,-20.48 61.2,-21.46 15.27,-0.8 31.14,2.13 47.01,5.06 8.82,1.63 17.64,3.26 25.77,4.28 7.36,0.89 14.04,-4.34 14.93,-11.69 0.9,-7.34 -4.33,-14.03 -11.67,-14.93 -8.56,-1.06 -16.38,-2.51 -24.21,-3.95 -17.44,-3.22 -34.87,-6.43 -53.19,-5.48 -24.34,1.26 -48.64,13.03 -71.47,24.08 -17.7,8.56 -34.41,16.65 -46.74,17.49 -7.26,0.48 -19.33,-4.23 -32.83,-9.5 -24.7,-9.65 -53.41,-20.87 -82.48,-12.83 -15.53,4.29 -27.53,13.43 -39.539,22.58 -9.57,7.29 -19.152,14.59 -29.266,17.75 -10.265,3.21 -22.527,2.01 -34.785,0.81 -7.34,-0.72 -14.683,-1.44 -21.574,-1.44" /><path
         id="path50"
         style="fill:#9f1b29;fill-opacity:1;fill-rule:nonzero;stroke:none"
         d="m 4147.08,2962.08 -38.64,-156.71 46.08,-53.17 0.64,0.85 z m -46.47,-188.49 -34.14,-138.46 71.61,95.21 z m -55.29,-224.23 -51.29,-208.03 164.7,101.16 z m -85.08,-233.31 183.4,743.83 c 0.97,4.92 4.7,9.1 9.89,10.39 7.17,1.8 14.45,-2.57 16.24,-9.74 l 186.83,-744.43 -0.03,-0.01 c 0.62,-2.47 0.54,-5.15 -0.39,-7.74 l -221.54,-615.26 c -1.36,-4.33 -4.89,-7.86 -9.62,-9 -7.17,-1.74 -14.4,2.67 -16.13,9.84 l -79.25,328.3 c -0.1,0.35 -0.19,0.71 -0.26,1.07 l -69,285.83 -0.03,0.09 -0.04,0.16 -0.04,0.16 -0.04,0.15 -0.05,0.19 -0.02,0.09 -0.05,0.26 -0.01,0.02 c -0.37,1.86 -0.35,3.84 0.14,5.8 z m 34,-33.27 55.81,-231.2 119.83,114.19 z m 74.09,-306.92 25.37,-105.09 39.07,31.12 z m 32.3,-133.79 18.11,-75.03 15.08,101.47 z m 54.29,-13.82 12.28,34.12 -6.16,7.08 z m 22.68,63 7.14,19.81 -13.81,-12.15 z m 25.96,72.09 52.27,145.16 -53.91,35.92 -31.22,-210.02 z m 61.61,171.09 46.71,129.71 -99.33,-94.65 z m 55.97,212.94 -55.12,219.62 -68.21,-123.23 z m -75.09,299.2 -34.42,137.14 -29.4,-39.1 0.99,-25.54 z m -42.78,170.46 -28.17,112.24 5.5,-142.38 z m -18.4,-140.69 7.26,-187.76 60.59,109.47 z m 10.22,-264.36 8.28,-214.29 119.81,114.18 z m -18.3,-218.66 -8.65,223.56 -170.1,-104.48 z m -10.79,279.08 -9.13,236.26 -0.9,1.04 -100.28,-133.35 z m -22.91,-541.55 29.87,200.91 L 4061,2025.07 Z" /><path
         id="path52"
         style="fill:#9f1b29;fill-opacity:1;fill-rule:nonzero;stroke:none"
         d="m 4074.04,3020.55 c 7,2.37 14.6,-1.38 16.97,-8.38 2.37,-7 -1.38,-14.6 -8.38,-16.97 l -227.94,-77.2 22.77,-19.71 c 5.58,-4.83 6.18,-13.27 1.36,-18.85 -1.13,-1.3 -2.45,-2.33 -3.88,-3.08 v -0.01 l -230.85,-121.76 c -6.54,-3.44 -14.63,-0.93 -18.07,5.61 -3.44,6.53 -0.93,14.62 5.61,18.07 l 213.53,112.62 -25.14,21.77 c -1.98,1.55 -3.55,3.68 -4.42,6.23 -2.37,7 1.38,14.6 8.38,16.98 l 250.06,84.68" /><path
         id="path54"
         style="fill:#9f1b29;fill-opacity:1;fill-rule:nonzero;stroke:none"
         d="m 4090.47,3071.19 c 7.26,-1.36 12.04,-8.34 10.68,-15.61 -1.36,-7.26 -8.35,-12.04 -15.61,-10.68 l -260.31,48.81 6.86,-31.23 c 1.56,-7.23 -3.04,-14.36 -10.27,-15.92 -1.32,-0.29 -2.64,-0.37 -3.93,-0.26 v 0 l -169.73,14.09 c -7.37,0.61 -12.86,7.08 -12.25,14.45 0.61,7.38 7.08,12.87 14.45,12.26 l 151.65,-12.59 -7.3,33.24 h 0.02 c -0.36,1.7 -0.41,3.49 -0.07,5.29 1.36,7.26 8.35,12.05 15.61,10.69 l 280.2,-52.54" /><path
         id="path56"
         style="fill:#9f1b29;fill-opacity:1;fill-rule:nonzero;stroke:none"
         d="m 4095.59,3115.4 c 6.24,-3.96 8.1,-12.24 4.14,-18.49 -3.97,-6.25 -12.25,-8.1 -18.5,-4.13 l -127.01,80.74 -12.8,-25.43 c -3.33,-6.6 -11.37,-9.25 -17.97,-5.92 -0.95,0.48 -1.83,1.07 -2.61,1.73 v 0 l -110.78,94.19 c -5.64,4.78 -6.35,13.22 -1.57,18.86 4.77,5.64 13.21,6.34 18.85,1.57 l 97.84,-83.19 11.45,22.74 c 0.27,0.64 0.6,1.27 0.98,1.87 3.97,6.25 12.25,8.1 18.5,4.14 l 139.48,-88.68" /><path
         id="path58"
         style="fill:#9f1b29;fill-opacity:1;fill-rule:nonzero;stroke:none"
         d="m 4159.09,3115.25 c 4.33,-5.96 3.02,-14.31 -2.94,-18.65 -5.96,-4.34 -14.31,-3.03 -18.65,2.93 l -107.74,147.78 -18.64,-24.87 c -4.42,-5.9 -12.8,-7.1 -18.7,-2.67 -1.1,0.82 -2.03,1.78 -2.8,2.84 l -0.03,-0.02 -186.8,257.29 c -4.34,5.99 -3,14.36 2.99,18.7 5.98,4.34 14.36,3 18.69,-2.99 l 176.16,-242.61 18.58,24.81 0.01,-0.01 c 0.78,1.04 1.72,1.99 2.82,2.78 5.96,4.34 14.31,3.03 18.65,-2.93 l 118.4,-162.38" /><path
         id="path60"
         style="fill:#9f1b29;fill-opacity:1;fill-rule:nonzero;stroke:none"
         d="m 4120.89,1715.48 c 7.41,0 13.41,-6 13.41,-13.41 0,-7.4 -6,-13.41 -13.41,-13.41 -6.89,0 -14.23,0.72 -21.57,1.44 -12.26,1.2 -24.52,2.4 -34.78,-0.81 -10.12,-3.16 -19.7,-10.46 -29.27,-17.75 -12.01,-9.15 -24.01,-18.29 -39.54,-22.58 -29.07,-8.04 -57.78,3.18 -82.48,12.83 -13.5,5.27 -25.56,9.98 -32.83,9.5 -12.33,-0.84 -29.04,-8.93 -46.74,-17.49 -22.83,-11.05 -47.12,-22.82 -71.47,-24.08 -18.32,-0.95 -35.75,2.26 -53.19,5.48 -7.82,1.44 -15.65,2.89 -24.2,3.95 -7.35,0.9 -12.58,7.59 -11.68,14.93 0.89,7.35 7.58,12.58 14.93,11.69 8.13,-1.02 16.95,-2.65 25.77,-4.28 15.87,-2.93 31.74,-5.86 47.01,-5.06 18.9,0.98 40.71,11.54 61.2,21.46 20.12,9.74 39.1,18.93 56.59,20.11 13.21,0.89 27.9,-4.86 44.36,-11.28 20.88,-8.16 45.16,-17.64 65.61,-11.99 10.5,2.91 20.46,10.49 30.43,18.08 11.46,8.74 22.95,17.49 37.53,22.04 15.32,4.79 30.3,3.33 45.27,1.86 6.27,-0.62 12.54,-1.23 19.05,-1.23" /><path
         id="path62"
         style="fill:#ffffff;fill-opacity:1;fill-rule:evenodd;stroke:none"
         d="M 2258.71,5006.04 C 3631.71,5150.35 4861.73,4154.3 5006.04,2781.29 5150.35,1408.29 4154.3,178.27 2781.29,33.9609 1408.29,-110.348 178.27,885.703 33.9609,2258.71 -110.348,3631.71 885.703,4861.73 2258.71,5006.04 Z m -813.13,-4078.935 215.5,319.495 0.06,0.03 c 288.96,-195.11 645.53,-293.513 1019.41,-254.216 259.26,27.246 496.59,117.576 698.49,254.016 l 215.38,-319.321 0.26,-0.371 c 145.06,97.942 279.08,217.472 397.18,358.222 682.1,812.89 576.07,2024.81 -236.82,2706.9 -812.89,682.1 -2024.81,576.07 -2706.9,-236.82 -682.097,-812.89 -576.062,-2024.81 236.82,-2706.9 51.97,-43.6 105.58,-83.941 160.56,-121.124 l 0.06,0.089" /><path
         id="path64"
         style="fill:#9f1b29;fill-opacity:1;fill-rule:nonzero;stroke:none"
         d="M 2256.66,5026 C 2948.63,5098.72 3604.6,4884.06 4105.78,4478.21 4606.93,4072.4 4953.26,3475.37 5026,2783.34 5098.72,2091.38 4884.06,1435.4 4478.21,934.219 4072.4,433.074 3475.37,86.7383 2783.34,14.0078 2091.38,-58.7227 1435.4,155.938 934.219,561.785 433.074,967.605 86.7383,1564.63 14.0078,2256.66 -58.7227,2948.63 155.938,3604.6 561.785,4105.78 967.605,4606.93 1564.63,4953.26 2256.66,5026 Z M 4080.48,4447.1 C 3587.33,4846.45 2941.79,5057.66 2260.75,4986.08 1579.79,4914.51 992.277,4573.68 592.898,4080.48 193.551,3587.33 -17.6641,2941.79 53.9219,2260.75 125.488,1579.79 466.324,992.277 959.52,592.898 1452.67,193.551 2098.21,-17.6641 2779.25,53.9219 3460.21,125.488 4047.72,466.324 4447.1,959.52 c 399.35,493.15 610.56,1138.69 538.98,1819.73 -71.57,680.96 -412.4,1268.47 -905.6,1667.85 z M 1440.17,955.02 l 204.25,302.82 6.37,5.96 0.06,0.04 10.99,6.57 10.54,-7.12 c 145.28,-98.1 307.8,-171.41 480.99,-214.6 167.02,-41.65 344.02,-55.354 525.15,-36.32 125.94,13.24 246.64,41.56 360.52,82.98 117.34,42.67 227.51,99.31 328.76,167.74 l 16.65,11.25 11.24,-16.68 204.34,-302.941 c 66.57,45.991 130.7,96.601 191.91,151.801 64.99,58.62 126.69,122.41 184.52,191.33 337.48,402.19 479.98,903.11 437.57,1387.88 -42.4,484.73 -269.72,953.28 -671.88,1290.73 -402.19,337.48 -903.11,479.98 -1387.88,437.57 -484.73,-42.4 -953.28,-269.72 -1290.73,-671.88 -337.477,-402.19 -479.981,-903.11 -437.571,-1387.88 42.406,-484.73 269.719,-953.28 671.881,-1290.73 25.53,-21.43 51.49,-42.08 77.85,-61.96 21.19,-15.986 42.69,-31.506 64.47,-46.56 z m 226.44,263.84 -204.34,-302.938 -10.7,-17.246 -17.28,11.683 c -27.86,18.84 -55.47,38.559 -82.79,59.168 -26.84,20.246 -53.32,41.313 -79.43,63.213 -410.718,344.64 -642.871,823.1 -686.175,1318.07 -43.301,494.94 102.226,1006.42 446.845,1417.12 344.64,410.72 823.1,642.87 1318.07,686.18 494.94,43.3 1006.42,-102.23 1417.12,-446.85 410.72,-344.64 642.87,-823.1 686.18,-1318.07 43.3,-494.94 -102.23,-1006.42 -446.85,-1417.12 -59.09,-70.41 -122.1,-135.57 -188.45,-195.4 -67.72,-61.08 -138.89,-116.623 -212.89,-166.592 l -16.17,-10.918 -11.41,15.953 -0.26,0.364 -0.31,0.394 -204.22,302.759 c -99.16,-65.16 -206.61,-119.46 -320.83,-161 -116.9,-42.5 -240.81,-71.583 -370.12,-85.177 -185.84,-19.531 -367.45,-5.476 -538.82,37.257 -171.36,42.74 -332.42,114.09 -477.17,209.15" /><path
         id="path66"
         style="fill:#9f1b29;fill-opacity:1;fill-rule:nonzero;stroke:none"
         d="m 2742.85,477.652 57.11,-108.472 117.96,-33.305 c 0.71,-0.18 1.38,-0.445 2.01,-0.793 l 0.1,-0.051 0.07,-0.039 0.15,-0.094 0.01,-0.003 c 0.54,-0.325 1.04,-0.7 1.49,-1.125 v -0.012 l 0.12,-0.106 0.09,-0.089 0.04,-0.04 0.11,-0.125 0.02,-0.011 c 1.07,-1.145 1.84,-2.582 2.17,-4.196 0.11,-0.57 0.17,-1.156 0.17,-1.75 v -0.019 -0.16 c -0.03,-1.418 -0.4,-2.766 -1.05,-3.953 l -0.06,-0.098 -0.03,-0.063 -0.09,-0.156 -0.01,-0.008 c -0.32,-0.539 -0.7,-1.039 -1.12,-1.484 l -0.01,-0.016 -0.11,-0.113 -0.09,-0.09 -0.04,-0.035 -0.12,-0.121 -0.02,-0.012 c -0.61,-0.574 -1.31,-1.066 -2.08,-1.445 l -108.47,-57.113 -33.31,-117.953 c -0.18,-0.711 -0.44,-1.387 -0.79,-2.016 l -0.05,-0.102 -0.04,-0.062 -0.09,-0.156 -0.01,-0.008 c -0.32,-0.543 -0.7,-1.035 -1.12,-1.485 l -0.01,-0.011 -0.11,-0.114 -0.09,-0.089 -0.04,-0.036 -0.13,-0.125 v -0.011 c -1.15,-1.067 -2.59,-1.836 -4.2,-2.164 -0.57,-0.118 -1.16,-0.18 -1.75,-0.18 h -0.02 l -0.16,0.008 c -1.42,0.023 -2.77,0.398 -3.95,1.047 l -0.1,0.054 -0.07,0.036 -0.15,0.089 -0.01,0.008 c -0.54,0.324 -1.04,0.699 -1.48,1.125 l -0.02,0.012 -0.11,0.105 -0.09,0.09 -0.04,0.039 -0.12,0.125 -0.01,0.016 c -0.57,0.613 -1.06,1.312 -1.44,2.078 l -57.11,108.477 -117.96,33.304 c -0.71,0.18 -1.39,0.446 -2.02,0.789 l -0.1,0.055 -0.06,0.035 -0.16,0.094 v 0.008 c -0.54,0.32 -1.04,0.699 -1.49,1.117 l -0.01,0.016 -0.12,0.105 -0.08,0.09 -0.04,0.039 -0.12,0.125 -0.01,0.016 c -1.07,1.14 -1.84,2.578 -2.17,4.195 -0.12,0.57 -0.18,1.156 -0.18,1.75 v 0.019 l 0.01,0.157 c 0.02,1.418 0.4,2.765 1.04,3.953 l 0.06,0.097 0.04,0.063 0.09,0.156 v 0.012 c 0.33,0.535 0.7,1.035 1.13,1.484 l 0.01,0.008 0.11,0.117 0.09,0.09 0.03,0.035 0.13,0.121 0.02,0.012 c 0.61,0.578 1.31,1.063 2.07,1.445 l 108.48,57.114 33.3,117.953 c 0.18,0.711 0.45,1.387 0.79,2.019 l 0.06,0.094 0.03,0.066 0.09,0.161 0.01,0.007 c 0.33,0.54 0.7,1.036 1.13,1.481 l 0.01,0.012 0.1,0.113 0.09,0.094 0.04,0.035 0.13,0.117 0.01,0.016 c 1.14,1.07 2.58,1.839 4.2,2.164 0.57,0.121 1.15,0.179 1.74,0.179 h 0.03 l 0.15,-0.004 c 1.42,-0.027 2.77,-0.402 3.96,-1.05 l 0.09,-0.055 0.07,-0.035 0.16,-0.09 0.01,-0.008 c 0.53,-0.32 1.03,-0.699 1.48,-1.125 l 0.01,-0.008 0.11,-0.109 0.09,-0.09 0.04,-0.039 0.12,-0.121 0.01,-0.016 c 0.58,-0.621 1.07,-1.312 1.45,-2.082 z m 40.8,-114.765 -34.94,66.371 10.62,-96.406 z m 85.73,-31.352 -72.18,20.383 -24.33,-30.035 z m -64.5,-52.668 66.36,34.942 -96.4,-10.621 z m -31.36,-85.734 20.39,72.187 -30.04,24.325 z m -52.66,64.508 34.94,-66.368 -10.62,96.403 z m -85.73,31.351 72.18,-20.383 24.32,30.039 z m 64.5,52.668 -66.37,-34.941 96.4,10.621 z m 31.35,85.738 -20.38,-72.191 30.03,-24.324 -9.65,96.515" /><path
         id="path68"
         style="fill:#9f1b29;fill-opacity:1;fill-rule:nonzero;stroke:none"
         d="M 2297.16,477.652 2240.04,369.18 2122.08,335.875 c -0.7,-0.18 -1.38,-0.445 -2.01,-0.793 l -0.1,-0.051 -0.07,-0.039 -0.15,-0.094 -0.01,-0.003 c -0.54,-0.325 -1.04,-0.7 -1.49,-1.125 v -0.012 l -0.12,-0.106 -0.09,-0.089 -0.04,-0.04 -0.11,-0.125 -0.02,-0.011 c -1.07,-1.145 -1.84,-2.582 -2.17,-4.196 -0.11,-0.57 -0.17,-1.156 -0.17,-1.75 v -0.019 -0.16 c 0.03,-1.418 0.4,-2.766 1.05,-3.953 l 0.06,-0.098 0.03,-0.063 0.09,-0.156 0.01,-0.008 c 0.32,-0.539 0.7,-1.039 1.12,-1.484 l 0.01,-0.016 0.11,-0.113 0.09,-0.09 0.04,-0.035 0.12,-0.121 0.02,-0.012 c 0.61,-0.574 1.31,-1.066 2.08,-1.445 l 108.47,-57.113 33.31,-117.953 c 0.18,-0.711 0.44,-1.387 0.79,-2.016 l 0.05,-0.102 0.04,-0.062 0.09,-0.156 0.01,-0.008 c 0.32,-0.543 0.7,-1.035 1.12,-1.485 l 0.01,-0.011 0.11,-0.114 0.09,-0.089 0.04,-0.036 0.13,-0.125 0.01,-0.011 c 1.14,-1.067 2.58,-1.836 4.19,-2.164 0.57,-0.118 1.16,-0.18 1.75,-0.18 h 0.02 l 0.16,0.008 c 1.42,0.023 2.77,0.398 3.95,1.047 l 0.1,0.054 0.07,0.036 0.15,0.089 0.01,0.008 c 0.54,0.324 1.04,0.699 1.48,1.125 l 0.02,0.012 0.11,0.105 0.09,0.09 0.04,0.039 0.12,0.125 0.01,0.016 c 0.57,0.613 1.06,1.312 1.44,2.078 l 57.11,108.477 117.96,33.304 c 0.71,0.18 1.39,0.446 2.02,0.789 l 0.1,0.055 0.06,0.035 0.16,0.094 v 0.008 c 0.54,0.32 1.04,0.699 1.49,1.117 l 0.01,0.016 0.12,0.105 0.08,0.09 0.04,0.039 0.12,0.125 0.02,0.016 c 1.06,1.14 1.83,2.578 2.16,4.195 0.12,0.57 0.18,1.156 0.18,1.75 v 0.019 l -0.01,0.157 c -0.02,1.418 -0.4,2.765 -1.04,3.953 l -0.06,0.097 -0.04,0.063 -0.09,0.156 v 0.012 c -0.33,0.535 -0.7,1.035 -1.13,1.484 l -0.01,0.008 -0.11,0.117 -0.09,0.09 -0.03,0.035 -0.13,0.121 -0.02,0.012 c -0.61,0.578 -1.31,1.063 -2.07,1.445 l -108.48,57.114 -33.3,117.953 c -0.18,0.711 -0.45,1.387 -0.79,2.019 l -0.06,0.094 -0.03,0.066 -0.09,0.161 -0.01,0.007 c -0.33,0.54 -0.7,1.036 -1.13,1.481 l -0.01,0.012 -0.1,0.113 -0.09,0.094 -0.04,0.035 -0.13,0.117 -0.01,0.016 c -1.14,1.07 -2.58,1.839 -4.2,2.164 -0.57,0.121 -1.15,0.179 -1.74,0.179 h -0.02 l -0.16,-0.004 c -1.42,-0.027 -2.77,-0.402 -3.96,-1.05 l -0.09,-0.055 -0.07,-0.035 -0.16,-0.09 -0.01,-0.008 c -0.53,-0.32 -1.03,-0.699 -1.48,-1.125 l -0.01,-0.008 -0.11,-0.109 -0.09,-0.09 -0.04,-0.039 -0.12,-0.121 -0.01,-0.016 c -0.58,-0.621 -1.07,-1.312 -1.44,-2.082 z m -40.81,-114.765 34.94,66.371 -10.62,-96.406 z m -85.73,-31.352 72.18,20.383 24.33,-30.035 z m 64.51,-52.668 -66.37,34.942 96.4,-10.621 z m 31.35,-85.734 -20.39,72.187 30.04,24.325 z m 52.66,64.508 -34.94,-66.368 10.62,96.403 z m 85.74,31.351 -72.19,-20.383 -24.32,30.039 z m -64.51,52.668 66.37,-34.941 -96.4,10.621 z m -31.35,85.738 20.38,-72.191 -30.03,-24.324 9.65,96.515" /><path
         id="path70"
         style="fill:#9f1b29;fill-opacity:1;fill-rule:nonzero;stroke:none"
         d="m 3162.61,568.617 78.41,-94.234 122.31,-8.051 c 0.72,-0.027 1.44,-0.148 2.13,-0.352 l 0.11,-0.031 0.07,-0.023 0.17,-0.059 h 0.01 c 0.6,-0.207 1.16,-0.472 1.69,-0.797 l 0.01,-0.007 0.14,-0.083 0.1,-0.066 0.04,-0.031 0.15,-0.098 0.01,-0.012 c 1.29,-0.894 2.34,-2.14 2.99,-3.652 0.24,-0.535 0.42,-1.094 0.54,-1.672 v -0.019 l 0.04,-0.157 c 0.26,-1.394 0.18,-2.789 -0.21,-4.085 l -0.03,-0.106 -0.02,-0.074 -0.06,-0.168 v -0.012 c -0.21,-0.594 -0.47,-1.156 -0.8,-1.683 v -0.016 l -0.09,-0.133 -0.07,-0.105 -0.03,-0.043 -0.09,-0.145 -0.01,-0.015 c -0.49,-0.692 -1.07,-1.317 -1.74,-1.844 l -94.23,-78.418 -8.05,-122.305 c -0.03,-0.73 -0.15,-1.449 -0.35,-2.137 l -0.04,-0.109 -0.02,-0.066 -0.06,-0.176 v -0.008 c -0.2,-0.594 -0.47,-1.156 -0.79,-1.684 l -0.01,-0.015 -0.08,-0.129 -0.07,-0.109 -0.03,-0.043 -0.1,-0.149 -0.01,-0.016 c -0.9,-1.281 -2.14,-2.332 -3.65,-2.992 -0.53,-0.23 -1.1,-0.41 -1.68,-0.531 l -0.01,-0.004 -0.16,-0.031 c -1.4,-0.27 -2.79,-0.184 -4.08,0.207 l -0.11,0.027 -0.07,0.024 -0.17,0.058 -0.01,0.004 c -0.6,0.203 -1.16,0.473 -1.69,0.793 l -0.01,0.004 -0.14,0.082 -0.1,0.07 -0.05,0.032 -0.14,0.097 -0.02,0.012 c -0.69,0.481 -1.31,1.059 -1.84,1.731 l -78.42,94.234 -122.3,8.051 c -0.73,0.031 -1.45,0.148 -2.14,0.351 l -0.11,0.035 -0.07,0.024 -0.17,0.055 -0.01,0.003 c -0.59,0.207 -1.16,0.473 -1.68,0.793 l -0.01,0.008 -0.14,0.082 -0.1,0.071 -0.05,0.027 -0.14,0.101 -0.02,0.008 c -1.29,0.895 -2.34,2.141 -2.99,3.653 -0.23,0.535 -0.42,1.093 -0.54,1.675 l -0.01,0.016 -0.02,0.156 c -0.27,1.395 -0.18,2.789 0.2,4.086 l 0.04,0.11 0.02,0.066 0.05,0.172 0.01,0.008 c 0.2,0.597 0.47,1.16 0.79,1.691 l 0.01,0.016 0.08,0.129 0.07,0.105 0.03,0.043 0.1,0.145 0.01,0.019 c 0.48,0.688 1.06,1.313 1.73,1.84 l 94.23,78.418 8.05,122.309 c 0.03,0.726 0.15,1.445 0.35,2.132 l 0.04,0.11 0.02,0.07 0.06,0.168 0.01,0.012 c 0.2,0.593 0.46,1.16 0.78,1.683 l 0.01,0.016 0.08,0.133 0.08,0.105 0.02,0.047 0.1,0.145 0.01,0.011 c 0.9,1.285 2.14,2.34 3.65,2.996 0.54,0.235 1.1,0.414 1.68,0.536 h 0.02 l 0.16,0.031 c 1.39,0.269 2.78,0.183 4.08,-0.207 l 0.11,-0.028 0.07,-0.023 0.17,-0.055 0.01,-0.007 c 0.59,-0.204 1.16,-0.469 1.68,-0.793 l 0.02,-0.008 0.13,-0.082 0.1,-0.067 0.05,-0.031 0.15,-0.098 0.01,-0.007 c 0.69,-0.485 1.31,-1.067 1.85,-1.735 z m 63.77,-103.773 -47.98,57.652 30.43,-92.094 z m 90.37,-12.844 -74.84,4.926 -17.55,-34.438 z m -52.14,-64.934 57.65,47.985 -92.09,-30.438 z m -12.84,-90.371 4.92,74.84 -34.43,17.547 z m -64.94,52.145 47.99,-57.652 -30.44,92.089 z m -90.37,12.84 74.84,-4.93 17.55,34.441 z m 52.15,64.933 -57.66,-47.98 92.09,30.433 z m 12.84,90.375 -4.93,-74.847 34.43,-17.547 -29.5,92.394" /><path
         id="path72"
         style="fill:#9f1b29;fill-opacity:1;fill-rule:nonzero;stroke:none"
         d="m 1877.39,568.617 -78.41,-94.234 -122.31,-8.051 c -0.72,-0.027 -1.44,-0.148 -2.13,-0.352 l -0.11,-0.031 -0.07,-0.023 -0.17,-0.059 h -0.01 c -0.6,-0.207 -1.16,-0.472 -1.69,-0.797 l -0.01,-0.007 -0.14,-0.083 -0.1,-0.066 -0.04,-0.031 -0.15,-0.098 -0.01,-0.012 c -1.29,-0.894 -2.34,-2.14 -2.99,-3.652 -0.24,-0.535 -0.42,-1.094 -0.54,-1.672 v -0.019 l -0.04,-0.157 c -0.26,-1.394 -0.18,-2.789 0.21,-4.085 l 0.03,-0.106 0.02,-0.074 0.06,-0.168 v -0.012 c 0.21,-0.594 0.47,-1.156 0.8,-1.683 v -0.016 l 0.09,-0.133 0.07,-0.105 0.03,-0.043 0.09,-0.145 0.01,-0.015 c 0.49,-0.692 1.07,-1.317 1.74,-1.844 l 94.23,-78.418 8.05,-122.305 c 0.03,-0.73 0.15,-1.449 0.35,-2.137 l 0.04,-0.109 0.02,-0.066 0.06,-0.176 v -0.008 c 0.2,-0.594 0.47,-1.156 0.79,-1.684 l 0.01,-0.015 0.08,-0.129 0.07,-0.109 0.03,-0.043 0.1,-0.149 0.01,-0.016 c 0.9,-1.281 2.14,-2.332 3.65,-2.992 0.53,-0.23 1.1,-0.41 1.68,-0.531 l 0.01,-0.004 0.16,-0.031 c 1.4,-0.27 2.79,-0.184 4.08,0.207 l 0.11,0.027 0.07,0.024 0.17,0.058 0.02,0.004 c 0.59,0.203 1.15,0.473 1.68,0.793 l 0.01,0.004 0.14,0.082 0.1,0.07 0.05,0.032 0.14,0.097 0.02,0.012 c 0.69,0.481 1.31,1.059 1.84,1.731 l 78.42,94.234 122.3,8.051 c 0.73,0.031 1.45,0.148 2.14,0.351 l 0.11,0.035 0.07,0.024 0.17,0.055 0.01,0.003 c 0.59,0.207 1.16,0.473 1.69,0.793 v 0.008 l 0.14,0.082 0.1,0.071 0.05,0.027 0.14,0.101 0.02,0.008 c 1.29,0.895 2.34,2.141 2.99,3.653 0.24,0.535 0.42,1.093 0.54,1.675 l 0.01,0.016 0.03,0.156 c 0.26,1.395 0.17,2.789 -0.21,4.086 l -0.04,0.11 -0.02,0.066 -0.05,0.172 -0.01,0.008 c -0.2,0.597 -0.47,1.16 -0.79,1.691 l -0.01,0.016 -0.08,0.129 -0.07,0.105 -0.03,0.043 -0.1,0.145 -0.01,0.019 c -0.48,0.688 -1.06,1.313 -1.73,1.84 l -94.23,78.418 -8.05,122.309 c -0.03,0.726 -0.15,1.445 -0.35,2.132 l -0.04,0.11 -0.02,0.07 -0.06,0.168 -0.01,0.012 c -0.2,0.593 -0.46,1.16 -0.78,1.683 l -0.01,0.016 -0.08,0.133 -0.08,0.105 -0.02,0.047 -0.1,0.145 -0.01,0.011 c -0.9,1.285 -2.14,2.34 -3.65,2.996 -0.54,0.235 -1.1,0.414 -1.68,0.536 h -0.02 l -0.16,0.031 c -1.39,0.269 -2.78,0.183 -4.08,-0.207 l -0.11,-0.028 -0.07,-0.023 -0.17,-0.055 -0.01,-0.007 c -0.59,-0.204 -1.16,-0.469 -1.68,-0.793 l -0.02,-0.008 -0.13,-0.082 -0.1,-0.067 -0.05,-0.031 -0.15,-0.098 -0.01,-0.007 c -0.69,-0.485 -1.31,-1.067 -1.85,-1.735 z m -63.76,-103.773 47.97,57.652 -30.43,-92.094 z M 1723.25,452 l 74.84,4.926 17.55,-34.438 z m 52.14,-64.934 -57.65,47.985 92.09,-30.438 z m 12.84,-90.371 -4.92,74.84 34.43,17.547 z m 64.94,52.145 -47.99,-57.652 30.44,92.089 z m 90.37,12.84 -74.84,-4.93 -17.55,34.441 z m -52.15,64.933 57.66,-47.98 -92.09,30.433 z m -12.84,90.375 4.93,-74.847 -34.43,-17.547 29.5,92.394" /><path
         id="path74"
         style="fill:#9f1b29;fill-opacity:1;fill-rule:evenodd;stroke:none"
         d="m 1698.24,906.188 -41.24,20.113 -19.23,-20.219 c -1.83,-1.926 -3.77,-3.68 -6,-5.141 -2.58,-1.695 -5.45,-2.765 -8.5,-3.203 -3.55,-0.504 -7.02,0.137 -10.23,1.703 -3.15,1.536 -5.67,3.86 -7.56,6.801 -1.78,2.774 -2.87,5.887 -3.03,9.184 -0.18,3.711 0.91,7.187 3.42,9.957 l 120.77,133.447 c 1.78,1.96 3.7,3.78 5.8,5.39 2.43,1.89 5.21,3.14 8.25,3.66 3.51,0.6 7.04,-0.19 10.2,-1.73 3.24,-1.58 6.03,-3.92 7.81,-7.09 1.51,-2.72 2.29,-5.7 2.35,-8.81 0.05,-2.64 -0.3,-5.26 -0.76,-7.85 l -31.5,-177.002 c -0.65,-3.691 -2.7,-6.687 -5.77,-8.82 -2.7,-1.871 -5.8,-2.937 -9.07,-3.242 -3.48,-0.32 -6.86,0.238 -10.01,1.769 -3.23,1.571 -5.87,3.903 -7.65,7.04 -1.51,2.66 -2.45,5.593 -2.7,8.644 -0.22,2.668 -0.04,5.297 0.37,7.938 z m 142.33,-111.375 -40.53,15.562 c -4.11,1.574 -8.11,3.488 -11.8,5.895 -3.66,2.382 -6.85,5.359 -9.58,8.761 -2.95,3.657 -5.2,7.821 -6.85,12.203 -1.56,4.106 -2.61,8.43 -2.83,12.825 -0.2,4.015 0.17,8.011 1.09,11.921 0.9,3.825 2.17,7.571 3.57,11.231 l 51.07,133.039 c 1.74,4.54 4.49,8.64 8.94,10.87 4.8,2.4 10.21,1.66 15.04,-0.2 4.85,-1.86 9.35,-4.9 11.31,-9.91 1.81,-4.64 1.11,-9.533 -0.63,-14.065 L 1808.3,859.906 c -0.93,-2.422 -2.16,-6.004 -2.12,-8.633 0.02,-1.144 0.28,-2.085 1.1,-2.89 1.48,-1.461 4.16,-2.625 6.06,-3.356 l 40.54,-15.554 c 1.91,-0.739 4.69,-1.684 6.78,-1.582 1.12,0.05 1.96,0.613 2.72,1.425 1.78,1.93 3.27,5.418 4.2,7.836 l 51.07,133.036 c 1.74,4.535 4.48,8.644 8.94,10.875 4.79,2.402 10.2,1.66 15.04,-0.196 4.85,-1.863 9.34,-4.902 11.3,-9.914 1.82,-4.64 1.11,-9.535 -0.63,-14.066 l -51.06,-133.035 c -1.41,-3.668 -2.97,-7.297 -4.87,-10.735 -1.93,-3.523 -4.33,-6.746 -7.16,-9.59 -3.11,-3.121 -6.78,-5.636 -10.68,-7.648 -4.15,-2.129 -8.61,-3.75 -13.22,-4.492 -4.32,-0.703 -8.7,-0.766 -13.03,-0.086 -4.35,0.683 -8.6,1.933 -12.71,3.512 z m 196.32,2.234 -18.33,4.91 c -2.87,0.77 -5.53,2.066 -7.85,3.945 -2.57,2.071 -4.36,4.778 -5.35,7.922 -1.12,3.547 -0.88,7.317 0.08,10.864 0.95,3.558 2.62,6.933 5.36,9.453 2.43,2.226 5.34,3.672 8.59,4.187 2.95,0.465 5.91,0.258 8.78,-0.512 l 54.19,-14.523 -14.52,-54.184 c -2.2,-8.226 -6.01,-15.816 -12.03,-21.914 -5.62,-5.683 -12.42,-9.406 -20.21,-11.191 -8.21,-1.879 -16.61,-1.316 -24.7,0.855 l -42.43,11.368 c -3.83,1.023 -7.58,2.3 -11.18,3.964 -3.55,1.633 -6.84,3.758 -9.79,6.313 -3.18,2.758 -5.84,6.117 -8.12,9.644 -2.56,3.961 -4.62,8.258 -5.73,12.852 -1,4.176 -1.28,8.426 -0.86,12.695 0.42,4.239 1.3,8.434 2.4,12.539 l 16.52,61.668 c 1.03,3.813 2.25,7.614 3.83,11.239 1.41,3.238 3.12,6.336 5.16,9.226 2.01,2.856 4.32,5.508 6.87,7.91 2.76,2.614 5.7,5.043 8.73,7.332 l 39.09,29.45 c 4.24,3.191 8.84,6.093 13.78,8.074 4.62,1.855 9.44,2.765 14.41,2.773 5.33,0.008 10.69,-0.988 15.82,-2.359 l 33.06,-8.856 c 2.87,-0.773 5.54,-2.07 7.85,-3.949 2.57,-2.07 4.36,-4.777 5.35,-7.922 1.12,-3.547 0.88,-7.308 -0.08,-10.863 -0.95,-3.57 -2.6,-6.894 -5.34,-9.43 -2.43,-2.246 -5.35,-3.695 -8.61,-4.207 -2.95,-0.465 -5.91,-0.257 -8.78,0.512 l -29.6,7.93 c -2.46,0.656 -4.99,1.39 -7.48,1.886 -0.61,0.122 -1.88,0.34 -2.5,0.207 -0.77,-0.16 -1.67,-0.71 -2.3,-1.144 -2.09,-1.445 -4.14,-3.02 -6.18,-4.547 l -36.07,-27.082 c -2.59,-1.945 -4.89,-4.227 -6.65,-6.965 -1.76,-2.75 -3.15,-5.726 -4.2,-8.82 -1.25,-3.645 -2.28,-7.383 -3.27,-11.102 l -12.96,-48.347 c -0.71,-2.657 -1.59,-6.313 -1.39,-9.078 0.08,-1.2 0.54,-2.028 1.47,-2.778 1.99,-1.601 5.67,-2.722 8.09,-3.371 l 39.22,-10.512 c 2.22,-0.593 4.61,-1.089 6.92,-1.089 1.25,0 2.38,0.312 3.39,1.07 1.2,0.89 1.95,3.023 2.31,4.387 z m 146.85,-101.563 -42.75,7.539 c -4.34,0.762 -8.63,1.879 -12.71,3.536 -4.05,1.636 -7.75,3.961 -11.08,6.773 -3.59,3.027 -6.59,6.684 -9.06,10.668 -2.31,3.734 -4.16,7.777 -5.21,12.051 -0.97,3.894 -1.36,7.91 -1.21,11.914 0.15,3.922 0.68,7.844 1.36,11.707 l 24.75,140.332 c 0.84,4.785 2.76,9.344 6.7,12.379 4.27,3.289 9.68,3.582 14.8,2.68 5.12,-0.903 10.11,-3.032 12.99,-7.579 2.67,-4.203 2.91,-9.144 2.07,-13.925 l -24.75,-140.336 c -0.45,-2.555 -0.97,-6.309 -0.43,-8.879 0.23,-1.117 0.68,-1.992 1.63,-2.633 1.72,-1.152 4.59,-1.777 6.59,-2.129 l 42.76,-7.539 c 2.02,-0.359 4.93,-0.754 6.96,-0.258 1.09,0.266 1.81,0.977 2.39,1.918 1.39,2.235 2.18,5.942 2.64,8.496 l 24.74,140.336 c 0.84,4.781 2.76,9.336 6.7,12.375 4.27,3.285 9.68,3.582 14.8,2.68 5.12,-0.902 10.11,-3.031 12.99,-7.578 2.67,-4.203 2.91,-9.145 2.07,-13.926 l -24.75,-140.332 c -0.68,-3.867 -1.52,-7.731 -2.73,-11.469 -1.22,-3.828 -2.95,-7.441 -5.2,-10.781 -2.45,-3.656 -5.57,-6.82 -9.02,-9.539 -3.67,-2.887 -7.73,-5.328 -12.12,-6.942 -4.11,-1.507 -8.39,-2.406 -12.77,-2.562 -4.4,-0.16 -8.82,0.258 -13.15,1.023 z m 127.42,17.301 c 0.11,-0.113 0.33,-0.183 0.45,-0.222 1.43,-0.454 3.2,-0.618 4.68,-0.719 l 55.28,-3.867 c 0.04,0 0.09,-0.004 0.13,-0.008 -0.26,0.394 -0.53,0.785 -0.79,1.179 l -79.53,118.457 c -1.59,2.387 -3.13,4.848 -4.43,7.407 -1.33,2.597 -2.33,5.316 -2.94,8.172 -0.67,3.121 -0.78,6.375 -0.54,9.558 0.44,5.926 2.19,11.453 5.42,16.446 3.22,4.964 7.59,8.855 12.77,11.71 2.71,1.489 5.62,2.688 8.65,3.34 2.68,0.578 5.42,0.879 8.17,0.84 2.62,-0.035 5.24,-0.187 7.85,-0.367 l 54.01,-3.781 c 5.11,-0.356 10.19,-1.301 14.98,-3.129 5.05,-1.922 9.48,-4.91 13.32,-8.696 2.54,-2.515 4.68,-5.398 6.5,-8.472 1.86,-3.145 3.3,-6.524 4.29,-10.039 1.02,-3.598 1.43,-7.285 1.2,-11.012 -0.21,-3.348 -1.02,-6.574 -2.53,-9.57 -1.59,-3.16 -3.92,-5.657 -6.98,-7.422 -3.33,-1.922 -7.15,-2.531 -10.95,-2.274 -4.93,0.336 -9.46,2.141 -12.72,5.938 -3.18,3.687 -4.36,8.226 -4.06,13.039 0.05,0.715 0.11,2.691 -0.22,3.352 -0.14,0.25 -0.49,0.386 -0.75,0.472 -1.55,0.524 -3.55,0.703 -5.19,0.821 l -54,3.777 c -0.37,0.027 -0.74,0.055 -1.11,0.086 0.25,-0.399 0.49,-0.793 0.75,-1.18 l 79.77,-118.473 c 1.6,-2.371 3.11,-4.816 4.45,-7.335 1.4,-2.645 2.46,-5.442 3.18,-8.348 0.78,-3.184 1.03,-6.492 0.78,-9.766 -0.52,-6.812 -2.48,-13.351 -6.74,-18.785 -3.89,-4.961 -8.88,-8.519 -14.81,-10.664 -6.04,-2.184 -12.34,-2.879 -18.73,-2.43 l -56.05,3.922 c -5.12,0.356 -10.21,1.246 -15.06,2.969 -5.16,1.852 -9.73,4.785 -13.7,8.562 -2.58,2.465 -4.82,5.25 -6.66,8.309 -1.85,3.102 -3.34,6.414 -4.29,9.902 -0.98,3.567 -1.38,7.192 -1.15,10.883 0.22,3.457 1.1,6.758 2.72,9.824 1.65,3.129 3.99,5.645 7.02,7.469 3.34,2.012 7.17,2.735 11.03,2.461 3.42,-0.246 6.64,-1.363 9.37,-3.465 2.52,-1.957 4.45,-4.5 5.65,-7.457 1.18,-2.898 1.63,-5.976 1.41,-9.09 -0.04,-0.519 -0.08,-1.769 0.1,-2.324 z m 189.2,126.969 h -13.19 v -3.402 c 0,-4.86 -1.09,-9.676 -4.45,-13.356 -3.61,-3.961 -8.93,-5.207 -14.11,-5.207 -5.18,0 -10.49,1.246 -14.11,5.207 -3.36,3.68 -4.45,8.496 -4.45,13.356 v 40.523 h 137.74 v -40.523 c 0,-4.86 -1.09,-9.676 -4.45,-13.356 -3.62,-3.961 -8.93,-5.207 -14.11,-5.207 -5.18,0 -10.49,1.246 -14.11,5.207 -3.36,3.68 -4.45,8.496 -4.45,13.356 v 3.402 h -13.19 V 685.168 c 0,-4.855 -1.09,-9.676 -4.45,-13.352 -3.62,-3.964 -8.93,-5.207 -14.11,-5.207 -5.18,0 -10.49,1.243 -14.11,5.207 -3.36,3.676 -4.45,8.497 -4.45,13.352 z m 387.66,-100.191 12.94,2.515 -8.73,44.949 c -0.9,4.618 -0.64,9.262 1.66,13.434 2.7,4.883 7.74,7.301 13.01,8.332 5.28,1.027 10.86,0.664 15.19,-2.852 3.71,-3.015 5.68,-7.199 6.58,-11.828 l 12.28,-63.175 c 0.7,-3.614 0.68,-7.379 -0.68,-10.84 -1.21,-3.067 -3.19,-5.649 -5.89,-7.532 -2.44,-1.711 -5.19,-2.82 -8.11,-3.386 l -98.77,-19.203 c -2.93,-0.567 -5.89,-0.567 -8.79,0.105 -3.21,0.738 -6.01,2.387 -8.28,4.773 -2.57,2.708 -3.99,6.188 -4.69,9.805 -0.7,3.613 -0.69,7.379 0.67,10.84 1.21,3.07 3.2,5.648 5.89,7.531 2.45,1.711 5.19,2.821 8.11,3.391 l 31.17,6.055 -25.95,133.523 -31.17,-6.055 c -2.92,-0.57 -5.88,-0.57 -8.79,0.098 -3.22,0.742 -6.04,2.391 -8.3,4.797 -2.55,2.726 -3.96,6.156 -4.67,9.781 -0.7,3.617 -0.68,7.379 0.68,10.848 1.21,3.062 3.18,5.64 5.88,7.531 2.45,1.703 5.2,2.816 8.12,3.383 l 67.6,13.14 z m 182.68,46.679 -20.9,68.36 -78.47,-23.993 c -3.28,-0.996 -6.61,-1.074 -9.91,-0.195 -3.06,0.813 -5.81,2.332 -8.15,4.473 -2.41,2.211 -4.16,4.91 -5.12,8.047 l -19.11,62.523 c -0.97,3.137 -1.02,6.352 -0.26,9.535 0.74,3.082 2.17,5.879 4.26,8.266 2.25,2.582 5.05,4.375 8.32,5.375 l 96.22,29.418 c 3.28,1 6.61,1.082 9.92,0.219 3.09,-0.805 5.82,-2.329 8.17,-4.481 2.41,-2.207 4.13,-4.937 5.09,-8.059 l 50.62,-165.582 c 0.95,-3.105 1.12,-6.308 0.44,-9.484 -0.67,-3.148 -2.09,-5.957 -4.25,-8.355 -2.3,-2.559 -5.23,-4.336 -8.52,-5.34 l -12.2,-3.735 c -3.29,-1 -6.74,-1.175 -10.08,-0.328 -3.1,0.785 -5.87,2.324 -8.17,4.543 -2.34,2.254 -3.99,5.012 -4.94,8.121 -1.48,4.871 -1.24,9.871 1.23,14.368 1.45,2.628 3.43,4.722 5.81,6.304 z m 77.88,172.942 18.53,-45.852 38.19,15.434 c 3.94,1.589 8.08,2.843 12.32,3.246 4.63,0.433 9.25,-0.528 13.56,-2.192 3.23,-1.242 6.37,-2.898 9,-5.16 2.39,-2.043 4.36,-4.433 5.93,-7.16 1.48,-2.586 2.71,-5.316 3.82,-8.074 l 20.48,-50.668 c 1,-2.477 1.91,-4.992 2.6,-7.574 0.71,-2.676 0.97,-5.411 0.93,-8.176 -0.05,-3.07 -0.66,-6.074 -1.62,-8.992 -1.12,-3.418 -2.68,-6.727 -4.95,-9.536 -2.05,-2.546 -4.53,-4.687 -7.35,-6.355 -2.67,-1.57 -5.51,-2.891 -8.38,-4.047 l -52.57,-21.238 c -2.19,-0.891 -4.48,-1.606 -6.81,-2.031 -2.12,-0.391 -4.27,-0.524 -6.42,-0.539 -2.17,-0.02 -4.33,0.019 -6.5,0.101 l -10.62,0.387 c -2.58,0.094 -5.16,0.09 -7.73,0.285 -3.13,0.242 -6.15,1.09 -8.92,2.566 -3.5,1.856 -5.91,4.961 -7.37,8.586 -1.2,3.012 -1.57,6.196 -1.12,9.403 0.43,3.082 1.55,5.961 3.33,8.511 1.9,2.719 4.46,4.754 7.53,6.028 1.81,0.754 3.72,1.242 5.67,1.457 1.67,0.179 3.36,0.191 5.03,0.152 l 8.35,-0.211 c 1.65,-0.043 3.3,-0.168 4.94,-0.293 1.59,-0.113 3.18,-0.176 4.76,-0.152 0.76,0.008 1.74,0.07 2.45,0.359 l 49.32,19.93 -18.52,45.848 -69.85,-28.219 -46.34,114.687 87.07,35.175 c 2.76,1.11 5.66,1.68 8.64,1.58 3.29,-0.11 6.36,-1.2 9.04,-3.11 3.03,-2.17 5.1,-5.31 6.48,-8.73 1.38,-3.41 2.06,-7.079 1.41,-10.743 -0.59,-3.258 -2.05,-6.172 -4.35,-8.547 -2.08,-2.144 -4.56,-3.757 -7.32,-4.871 z m 243.92,-35.801 -33.55,63.117 -72.46,-38.523 c -3.01,-1.602 -6.28,-2.317 -9.69,-2.086 -3.16,0.214 -6.15,1.179 -8.85,2.836 -2.79,1.714 -5.02,4.027 -6.56,6.925 l -30.69,57.728 c -1.54,2.89 -2.22,6.04 -2.07,9.31 0.13,3.17 1.01,6.18 2.59,8.92 1.72,2.96 4.13,5.27 7.15,6.87 l 88.84,47.23 c 3.03,1.62 6.28,2.33 9.69,2.11 3.19,-0.2 6.17,-1.17 8.89,-2.84 2.78,-1.7 4.99,-4.05 6.52,-6.94 l 81.29,-152.876 c 1.52,-2.859 2.31,-5.992 2.25,-9.226 -0.06,-3.223 -0.92,-6.25 -2.58,-9.012 -1.77,-2.953 -4.32,-5.258 -7.34,-6.867 l -11.28,-5.996 c -3.04,-1.614 -6.38,-2.442 -9.82,-2.247 -3.2,0.18 -6.21,1.164 -8.89,2.903 -2.73,1.769 -4.88,4.16 -6.4,7.031 -2.37,4.484 -3.09,9.465 -1.53,14.328 0.92,2.867 2.46,5.297 4.49,7.305 z m -1687.46,20.793 7.91,44.25 -30.14,-33.406 z m 1273.18,-72.637 60.72,18.566 -8.26,27.016 -60.72,-18.562 z m 307.23,117.93 56.07,29.811 -13.27,24.94 -56.06,-29.81 13.26,-24.941" /><path
         id="path76"
         style="fill:#9f1b29;fill-opacity:1;fill-rule:evenodd;stroke:none"
         d="m 1003.13,919.602 c -0.43,8.843 0.1,17.796 2.22,26.382 2.35,9.539 6.19,18.477 11.4,26.801 5.48,8.75 11.93,16.961 18.75,24.707 9.23,10.488 19.9,19.728 32.37,26.158 11.27,5.82 23.33,9.19 36.01,9.73 12.67,0.54 25,-1.81 36.78,-6.46 12.83,-5.06 24.45,-12.51 34.84,-21.54 l 97.88,-85.091 -233.45,-268.559 -97.891,85.086 c -14.707,12.786 -27.598,28.414 -33.777,47.153 -5.543,16.808 -5.469,33.73 -0.305,50.64 5.652,18.504 16.527,35.106 29.098,49.637 5.726,6.617 12.043,12.723 18.984,18.063 7.141,5.504 15.078,9.671 23.578,12.66 7.574,2.66 15.516,4.09 23.513,4.633 z m 129.7,-75.891 61.78,71.074 -55.74,48.453 c -8.75,7.61 -19.65,14.481 -31.64,14.45 -11.98,-0.032 -22.12,-8.336 -29.64,-16.875 -5.16,-5.868 -10.08,-12.262 -13.86,-19.125 -2.8,-5.083 -4.86,-10.622 -5.24,-16.45 -0.36,-5.508 1.13,-10.703 3.68,-15.543 3.51,-6.664 9.28,-12.625 14.92,-17.531 z m -98.42,-113.211 61.79,71.074 -55.74,48.453 c -8.74,7.586 -19.68,14.477 -31.65,14.446 -11.997,-0.024 -22.091,-8.309 -29.626,-16.875 -5.168,-5.868 -10.09,-12.262 -13.868,-19.121 -2.796,-5.079 -4.859,-10.618 -5.238,-16.446 -0.359,-5.508 1.121,-10.703 3.676,-15.547 3.516,-6.66 9.277,-12.625 14.918,-17.531 z m -53.816,389.36 -96.067,110.51 c -2.992,3.45 -5.269,7.37 -6.605,11.74 -1.43,4.66 -1.383,9.44 0.004,14.11 1.601,5.39 5.168,9.89 9.359,13.54 4.192,3.64 9.145,6.54 14.703,7.38 4.813,0.72 9.571,0.1 13.981,-1.96 4.14,-1.93 7.707,-4.73 10.699,-8.18 L 1059.36,1114.36 790.801,880.898 658.109,1033.55 c -2.996,3.44 -5.273,7.36 -6.609,11.73 -1.43,4.67 -1.387,9.44 0,14.11 1.605,5.4 5.172,9.9 9.359,13.54 4.215,3.66 9.094,6.52 14.68,7.38 4.82,0.75 9.59,0.11 14.004,-1.95 4.141,-1.94 7.707,-4.73 10.703,-8.18 l 96.067,-110.512 71.07,61.782 -38.875,44.72 c -2.992,3.44 -5.27,7.37 -6.61,11.74 -1.425,4.66 -1.375,9.43 0.004,14.11 1.602,5.39 5.168,9.89 9.36,13.53 4.191,3.65 9.144,6.55 14.707,7.39 4.808,0.72 9.566,0.1 13.976,-1.96 4.145,-1.94 7.707,-4.73 10.703,-8.18 l 38.875,-44.72 z m -178.66,220.35 -204.786,-133 5.766,-8.87 c 2.824,-4.35 5.133,-9.07 6.43,-14.12 1.328,-5.16 1.152,-10.36 -0.688,-15.37 -2.066,-5.64 -6.34,-9.99 -11.304,-13.21 -4.832,-3.14 -10.364,-5.19 -16.192,-4.89 -5.172,0.28 -9.922,1.99 -14.105,5.05 -4.117,3.01 -7.477,6.75 -10.25,11.02 l -40.246,61.98 c -5.786,8.9 -10.653,18.75 -12.786,29.22 -1.925,9.46 -1.656,18.98 0.793,28.33 2.641,10.08 7.317,19.72 12.575,28.67 l 44.109,75.08 c 3.203,5.45 6.668,10.74 10.41,15.83 3.531,4.81 7.496,9.27 11.86,13.32 4.746,4.41 9.96,8.34 15.39,11.86 7.543,4.9 15.66,8.8 24.266,11.45 8.48,2.61 17.242,4.2 26.051,5.19 l 89.472,10.09 c 10.602,1.2 21.828,1.41 32.258,-1.17 9.496,-2.34 18.02,-6.76 25.512,-13.04 8.144,-6.83 14.929,-15.49 20.699,-24.37 l 40.008,-61.6 c 2.484,-3.83 4.191,-8.03 4.914,-12.54 0.758,-4.81 0.047,-9.55 -1.977,-13.98 -2.332,-5.11 -6.488,-9.07 -11.148,-12.1 -4.656,-3.02 -9.969,-5.21 -15.59,-5.26 -4.875,-0.05 -9.48,1.22 -13.57,3.88 -3.832,2.49 -6.969,5.76 -9.457,9.59 z m -235.196,-86.17 204.785,132.99 -1.425,2.19 c -2.231,3.44 -5.016,7.66 -8.012,10.48 -1.832,1.73 -3.863,2.75 -6.34,3.16 -3.738,0.63 -8.824,0.06 -12.574,-0.38 l -87.262,-10.24 c -3.347,-0.39 -6.68,-0.88 -9.996,-1.48 -2.828,-0.51 -5.601,-1.24 -8.297,-2.24 -2.781,-1.03 -5.441,-2.38 -7.929,-4 -3.329,-2.16 -6.536,-4.66 -9.254,-7.56 -2.489,-2.66 -4.684,-5.58 -6.641,-8.65 -2.301,-3.6 -4.504,-7.27 -6.691,-10.94 l -42.715,-71.53 c -1.899,-3.18 -3.965,-6.78 -5.227,-10.27 -0.629,-1.73 -1.117,-3.77 -0.883,-5.64 0.254,-2.03 1.289,-4.21 2.282,-5.99 1.879,-3.36 4.07,-6.66 6.179,-9.9 z m -141.613,255.07 51.668,23.01 -41.914,94.15 c -1.859,4.17 -2.891,8.59 -2.895,13.16 0,4.87 1.442,9.43 4.133,13.49 3.106,4.69 7.832,7.95 12.906,10.21 5.075,2.26 10.665,3.58 16.223,2.76 4.824,-0.72 9.176,-2.69 12.793,-5.96 3.399,-3.06 5.988,-6.78 7.844,-10.95 l 41.918,-94.15 145.894,64.96 c 6.641,2.95 14.121,4.57 21.211,2.21 7.621,-2.53 12.512,-9.32 15.653,-16.37 3.132,-7.04 4.906,-15.22 1.687,-22.58 -3.012,-6.89 -9.156,-11.3 -15.84,-14.28 l -299.582,-133.38 -82.261,184.78 c -1.86,4.17 -2.887,8.59 -2.891,13.15 -0.004,4.88 1.441,9.44 4.129,13.5 3.105,4.69 7.836,7.95 12.906,10.21 5.098,2.27 10.606,3.56 16.195,2.76 4.84,-0.69 9.196,-2.69 12.821,-5.96 3.398,-3.06 5.992,-6.78 7.843,-10.95 z m -172.973,419.55 73.606,65.54 c 4.57,4.07 9.418,7.8 14.523,11.17 4.774,3.15 9.821,5.88 15.078,8.11 5.575,2.36 11.379,4.25 17.219,5.81 6.543,1.76 13.281,2.98 20.051,3.34 6.144,0.32 12.312,0.19 18.422,-0.57 6.312,-0.79 12.597,-1.89 18.828,-3.17 l 89.184,-18.25 c 8.082,-1.65 15.933,-4.31 23.226,-8.18 7.301,-3.89 13.633,-9.01 18.914,-15.37 5.649,-6.81 9.453,-14.73 11.738,-23.26 2.278,-8.49 2.922,-17.25 1.442,-25.94 -1.395,-8.18 -4.281,-15.8 -8.68,-22.84 -4.371,-7 -9.844,-13.23 -16.015,-18.7 l -68.11,-60.4 c -4.758,-4.22 -9.656,-8.31 -14.723,-12.15 -4.917,-3.73 -10.187,-6.95 -15.699,-9.72 -6.058,-3.04 -12.465,-5.37 -19.004,-7.12 -5.839,-1.57 -11.812,-2.83 -17.816,-3.58 -5.672,-0.69 -11.406,-0.86 -17.113,-0.51 -6.106,0.36 -12.172,1.17 -18.164,2.41 l -96.508,19.95 c -8.082,1.67 -15.785,4.49 -23.024,8.44 -7.168,3.91 -13.445,9.02 -18.683,15.28 -5.582,6.68 -9.375,14.39 -11.625,22.78 -2.246,8.38 -2.821,16.97 -1.321,25.54 1.407,8.06 4.25,15.65 8.52,22.65 4.285,7.03 9.594,13.28 15.734,18.74 z m 105.223,18.84 -67.055,-59.19 c -1.785,-1.58 -3.617,-3.13 -5.312,-4.79 -0.969,-0.95 -1.633,-2.04 -2.078,-3.31 -0.403,-1.13 -0.075,-2.92 0.222,-4.03 0.297,-1.11 0.907,-2.82 1.821,-3.6 1.027,-0.87 2.14,-1.49 3.457,-1.83 2.3,-0.59 4.66,-1.02 6.996,-1.48 l 87.668,-17.74 c 4.101,-0.83 8.254,-1.76 12.406,-2.32 3.5,-0.48 7.055,-0.55 10.578,-0.33 3.906,0.23 7.844,1 11.625,2.01 4.418,1.18 8.832,2.82 12.774,5.18 3.976,2.38 7.671,5.28 11.121,8.36 l 70.218,62.8 c 1.645,1.47 3.297,2.96 4.84,4.54 1.047,1.07 1.86,2.32 2.391,3.72 0.457,1.2 0.289,2.68 -0.035,3.89 -0.336,1.25 -0.895,2.55 -1.914,3.39 -1.18,0.96 -2.551,1.62 -4.004,2.05 -2.094,0.61 -4.254,1.04 -6.391,1.48 l -92.203,19.28 c -4.504,0.94 -9.168,1.64 -13.773,1.68 -4.618,0.04 -9.247,-0.71 -13.7,-1.9 -3.773,-1.01 -7.57,-2.32 -11.074,-4.07 -3.156,-1.58 -6.199,-3.42 -8.992,-5.58 -3.313,-2.56 -6.449,-5.43 -9.586,-8.21 z m -19.25,208.05 157.27,22.1 c 7.238,1.02 14.8,0.53 21,-3.72 6.628,-4.53 9.46,-12.39 10.531,-20.04 1.074,-7.62 0.504,-16 -4.598,-22.17 -4.797,-5.79 -11.918,-8.34 -19.16,-9.36 l -324.742,-45.64 -21.496,152.97 c -1.321,9.37 -0.953,18.75 0.941,28.01 1.895,9.25 5.356,17.89 10.352,25.89 5.039,8.07 11.593,14.86 19.449,20.23 8.433,5.77 17.906,9.16 27.992,10.57 l 30.238,4.26 c 10.262,1.44 20.676,0.92 30.555,-2.35 8.938,-2.96 16.953,-7.64 23.781,-14.12 6.719,-6.39 12.071,-13.82 16.098,-22.17 4.082,-8.47 6.754,-17.46 8.062,-26.78 l 4.118,-29.31 119.105,110.85 c 2.176,2.02 4.274,4.11 6.508,6.07 2.539,2.23 5.254,4.25 8.16,5.97 3.117,1.85 6.539,3.15 10.137,3.67 4.937,0.72 9.949,0.07 14.488,-2.02 4.328,-1.99 7.875,-5.07 10.606,-8.96 2.839,-4.04 4.566,-8.55 5.214,-13.45 0.688,-5.25 -0.066,-10.43 -2.597,-15.11 -2.239,-4.14 -5.328,-7.69 -8.758,-10.89 L 337.934,2156.91 Z m -112.18,-15.76 56.887,7.99 -12.863,91.54 c -0.453,3.22 -1.028,6.41 -1.77,9.57 -0.695,2.96 -1.695,5.85 -3.113,8.54 -1.082,2.06 -2.516,3.73 -4.504,4.96 -2.035,1.25 -4.613,1.29 -6.91,0.97 l -30.234,-4.26 c -2.383,-0.33 -5.063,-1.09 -6.817,-2.83 -1.644,-1.64 -2.738,-3.58 -3.336,-5.82 -0.773,-2.89 -1.148,-5.87 -1.094,-8.86 0.063,-3.3 0.372,-6.56 0.829,-9.82 z m 210.407,317.93 -244.145,4.26 -0.184,-10.58 c -0.085,-5.19 -0.812,-10.4 -2.562,-15.3 -1.789,-5.03 -4.832,-9.23 -9.164,-12.37 -4.856,-3.5 -10.859,-4.73 -16.758,-4.62 -5.777,0.1 -11.484,1.47 -16.156,5 -4.137,3.12 -7.117,7.2 -8.875,12.07 -1.727,4.78 -2.426,9.8 -2.336,14.87 l 1.293,73.88 c 0.187,10.63 1.656,21.51 5.742,31.38 3.699,8.94 9.231,16.66 16.496,23.05 7.832,6.87 17.094,12.25 26.461,16.73 l 78.551,37.58 c 5.699,2.72 11.535,5.17 17.484,7.31 5.614,2.01 11.395,3.48 17.285,4.41 6.395,1 12.914,1.33 19.383,1.22 8.992,-0.16 17.91,-1.46 26.524,-4.08 8.488,-2.58 16.64,-6.15 24.496,-10.26 l 79.82,-41.66 c 9.465,-4.94 18.883,-11.05 26.09,-19.01 6.562,-7.26 11.16,-15.69 13.855,-25.08 2.934,-10.22 3.719,-21.19 3.536,-31.78 l -1.282,-73.44 c -0.082,-4.57 -1.011,-9 -2.941,-13.14 -2.059,-4.43 -5.289,-7.95 -9.449,-10.49 -4.782,-2.93 -10.473,-3.9 -16.012,-3.8 -5.551,0.1 -11.172,1.26 -15.867,4.36 -4.067,2.68 -7.172,6.32 -9.078,10.8 -1.774,4.19 -2.559,8.7 -2.477,13.24 z m -243.168,60.08 244.14,-4.26 0.043,2.62 c 0.074,4.09 0.125,9.16 -0.785,13.16 -0.555,2.46 -1.668,4.44 -3.488,6.17 -2.746,2.61 -7.278,4.98 -10.633,6.71 l -78.074,40.32 c -2.992,1.54 -6.028,3 -9.11,4.36 -2.632,1.16 -5.343,2.1 -8.136,2.78 -2.879,0.7 -5.844,1.07 -8.805,1.12 -3.973,0.06 -8.027,-0.21 -11.906,-1.1 -3.547,-0.82 -7,-2 -10.344,-3.45 -3.918,-1.7 -7.793,-3.52 -11.66,-5.33 l -75.41,-35.42 c -3.352,-1.57 -7.078,-3.4 -10.075,-5.59 -1.492,-1.09 -3.043,-2.5 -3.886,-4.18 -0.926,-1.83 -1.289,-4.21 -1.461,-6.24 -0.321,-3.84 -0.352,-7.8 -0.41,-11.67 z m 357.39,648.65 c 5.528,2.07 11.594,1.67 17.207,0.17 5.485,-1.47 10.641,-4.13 14.387,-8.49 3.195,-3.71 5.277,-8.02 6,-12.87 0.645,-4.31 0.48,-8.62 -0.648,-12.83 l -20.043,-74.8 c -2.692,-10.06 -6.645,-19.98 -12.668,-28.53 -5.504,-7.8 -12.508,-14.08 -20.813,-18.77 -8.871,-5.02 -18.805,-8.12 -28.762,-10.12 l -90.039,-18.01 c -8.238,-1.65 -16.605,-2.73 -25.019,-2.79 -8.633,-0.06 -17.254,1.12 -25.586,3.35 -5.926,1.59 -11.785,3.56 -17.399,6.04 -5.195,2.29 -10.121,5.11 -14.773,8.37 -5.031,3.53 -9.797,7.46 -14.398,11.53 l -68.536,60.51 c -7.867,6.94 -15.281,14.92 -20.55,24.04 -4.844,8.39 -7.696,17.47 -8.368,27.13 -0.73,10.55 1.036,21.32 3.758,31.49 l 19.469,72.66 c 1.094,4.08 2.953,7.86 5.531,11.21 3,3.89 6.864,6.63 11.457,8.35 5.559,2.09 11.567,1.69 17.207,0.18 5.512,-1.48 10.586,-4.11 14.367,-8.47 3.223,-3.7 5.293,-8.04 6.024,-12.89 0.641,-4.31 0.48,-8.62 -0.649,-12.83 l -19.128,-71.38 c -0.934,-3.49 -1.872,-7.14 -2.375,-10.71 -0.266,-1.84 -0.27,-3.79 0.226,-5.6 0.485,-1.74 1.621,-3.37 2.781,-4.73 2.239,-2.64 5.079,-5.14 7.664,-7.43 l 64.411,-57.12 c 2.886,-2.56 5.882,-5 8.972,-7.32 2.649,-1.99 5.414,-3.81 8.383,-5.29 3.285,-1.64 6.832,-2.85 10.375,-3.8 3.141,-0.84 6.387,-1.39 9.641,-1.46 3.027,-0.06 6.043,0.09 9.035,0.58 3.547,0.58 7.074,1.34 10.605,2.04 l 83.676,16.52 c 4.074,0.8 9.52,1.95 13.215,3.88 2.332,1.22 3.941,2.98 5.109,5.33 2.024,4.07 3.422,9.24 4.598,13.62 l 18.668,69.67 c 1.086,4.05 2.969,7.83 5.496,11.17 2.973,3.93 6.887,6.66 11.492,8.4 z m -154.394,338.1 98.445,4.6 c 6.109,0.29 12.227,0.14 18.313,-0.45 5.687,-0.56 11.332,-1.61 16.824,-3.2 5.812,-1.66 11.515,-3.85 17.035,-6.31 6.191,-2.75 12.199,-6.04 17.687,-10.03 4.977,-3.62 9.688,-7.59 13.954,-12.03 4.41,-4.59 8.605,-9.4 12.644,-14.31 l 57.824,-70.31 c 5.239,-6.37 9.668,-13.37 12.891,-20.98 3.23,-7.61 4.93,-15.58 5.027,-23.84 0.106,-8.84 -1.926,-17.42 -5.508,-25.46 -3.574,-8.04 -8.582,-15.25 -15.203,-21.07 -6.23,-5.48 -13.273,-9.59 -21.117,-12.29 -7.805,-2.69 -15.98,-4.08 -24.223,-4.46 l -90.937,-4.07 c -6.352,-0.29 -12.734,-0.38 -19.09,-0.18 -6.168,0.2 -12.293,1.01 -18.316,2.33 -6.621,1.45 -13.067,3.67 -19.254,6.42 -5.524,2.46 -10.961,5.24 -16.09,8.44 -4.852,3.03 -9.41,6.51 -13.625,10.37 -4.516,4.13 -8.723,8.57 -12.598,13.3 l -62.453,76.24 c -5.226,6.38 -9.433,13.42 -12.578,21.05 -3.109,7.55 -4.769,15.48 -4.898,23.64 -0.141,8.67 1.777,17.1 5.3,25.01 3.528,7.93 8.485,14.96 15.039,20.68 6.172,5.38 13.161,9.49 20.879,12.24 7.754,2.76 15.809,4.28 24.028,4.67 z m 93.629,-51.58 -89.368,-3.81 c -2.375,-0.1 -4.777,-0.15 -7.144,-0.38 -1.348,-0.12 -2.543,-0.55 -3.699,-1.26 -1.016,-0.63 -1.891,-2.22 -2.356,-3.27 -0.469,-1.05 -1.074,-2.76 -0.847,-3.94 0.242,-1.33 0.722,-2.51 1.531,-3.6 1.414,-1.91 2.98,-3.73 4.5,-5.56 l 56.969,-68.96 c 2.664,-3.22 5.312,-6.56 8.179,-9.6 2.422,-2.57 5.141,-4.87 8.012,-6.92 3.187,-2.28 6.73,-4.16 10.305,-5.75 4.179,-1.86 8.64,-3.37 13.183,-4.01 4.586,-0.66 9.289,-0.73 13.91,-0.5 l 94.09,4.61 c 2.207,0.11 4.422,0.23 6.621,0.48 1.481,0.17 2.903,0.64 4.196,1.39 1.109,0.65 1.91,1.9 2.422,3.05 0.519,1.17 0.906,2.54 0.64,3.83 -0.312,1.49 -0.961,2.87 -1.82,4.11 -1.238,1.8 -2.649,3.49 -4.031,5.18 l -59.528,73 c -2.902,3.57 -6.09,7.06 -9.644,9.98 -3.567,2.94 -7.633,5.27 -11.844,7.14 -3.57,1.59 -7.34,2.96 -11.164,3.81 -3.442,0.76 -6.969,1.24 -10.5,1.33 -4.184,0.09 -8.43,-0.17 -12.613,-0.35 z m 322.027,153.57 -40.973,-63.09 c -3.988,-6.15 -8.484,-12 -13.679,-17.18 -5.039,-5.02 -10.879,-9.09 -17.215,-12.3 -6.86,-3.47 -14.309,-5.64 -21.887,-6.82 -7.082,-1.09 -14.348,-1.3 -21.437,-0.17 -6.485,1.04 -12.735,3 -18.672,5.8 -5.985,2.82 -11.711,6.22 -17.25,9.82 l -207.082,134.48 c -6.133,3.98 -11.508,9.31 -13.411,16.58 -2.023,7.77 1,15.57 5.208,22.04 4.214,6.5 10.058,12.4 18.015,13.71 7.399,1.22 14.481,-1.53 20.598,-5.51 l 207.082,-134.47 c 4.312,-2.8 10.265,-6.31 15.367,-7.32 3.035,-0.59 5.84,-0.26 8.441,1.45 3.586,2.35 6.797,6.76 9.098,10.3 l 40.969,63.09 c 2.324,3.57 5.062,8.3 5.754,12.56 0.496,3.04 -0.403,5.75 -2.157,8.24 -2.988,4.25 -8.621,8.27 -12.925,11.06 L 548.602,3803.3 c -6.137,3.97 -11.516,9.3 -13.411,16.58 -2.027,7.76 0.997,15.56 5.2,22.03 4.214,6.5 10.058,12.4 18.015,13.72 7.403,1.22 14.481,-1.53 20.602,-5.51 l 207.078,-134.48 c 5.539,-3.59 10.977,-7.44 15.984,-11.76 4.973,-4.29 9.305,-9.2 12.891,-14.7 3.926,-6.02 6.684,-12.74 8.566,-19.65 2,-7.37 3.094,-15.07 2.719,-22.71 -0.351,-7.12 -1.73,-14.12 -4.277,-20.79 -2.625,-6.85 -6.141,-13.35 -10.133,-19.49 z m 106.582,322.57 -165.387,144.29 c -5.508,4.8 -10.101,10.82 -10.965,18.28 -0.929,8.02 3.133,15.26 8.215,21.1 5.082,5.85 11.688,10.88 19.75,11.08 7.5,0.18 14.133,-3.54 19.637,-8.32 l 247.492,-215.15 -44.609,-51.31 -255.028,80.19 163.899,-142.47 c 5.519,-4.8 10.105,-10.82 10.973,-18.29 0.925,-7.98 -3.157,-15.28 -8.219,-21.1 -5.063,-5.82 -11.723,-10.88 -19.754,-11.07 -7.52,-0.19 -14.113,3.52 -19.633,8.32 l -247.492,215.14 44.625,51.33 z m 23.922,301.59 -23.652,-20.56 6.652,-7.66 c 4.797,-5.52 8.5,-12.11 8.32,-19.63 -0.195,-8.03 -5.254,-14.69 -11.078,-19.75 -5.82,-5.06 -13.121,-9.14 -21.098,-8.22 -7.472,0.87 -13.484,5.45 -18.285,10.98 l -43.281,49.78 173.722,151.02 43.28,-49.8 c 4.79,-5.52 8.5,-12.11 8.32,-19.63 -0.2,-8.03 -5.25,-14.69 -11.08,-19.75 -5.82,-5.06 -13.12,-9.14 -21.09,-8.22 -7.48,0.87 -13.49,5.45 -18.29,10.97 l -6.65,7.65 -23.653,-20.55 178.513,-205.36 c 4.8,-5.52 8.5,-12.11 8.32,-19.63 -0.2,-8.03 -5.25,-14.69 -11.08,-19.75 -5.82,-5.07 -13.12,-9.14 -21.1,-8.22 -7.47,0.86 -13.48,5.45 -18.28,10.97 z m 377.48,124.07 76.05,-117.1 c 3.98,-6.12 6.73,-13.2 5.51,-20.6 -1.31,-7.93 -7.25,-13.82 -13.72,-18.02 -6.45,-4.19 -14.29,-7.22 -22.03,-5.2 -7.28,1.9 -12.6,7.28 -16.59,13.41 l -76.04,117.1 -134.81,47.53 -25.65,39.5 c -3.98,6.12 -6.73,13.21 -5.51,20.61 1.31,7.95 7.22,13.8 13.72,18.02 6.46,4.19 14.26,7.22 22.03,5.19 7.28,-1.89 12.6,-7.27 16.58,-13.41 l 15.32,-23.58 91.62,-32.29 7.77,96.84 -15.32,23.58 c -3.97,6.12 -6.73,13.2 -5.5,20.6 1.31,7.96 7.21,13.8 13.71,18.02 6.47,4.2 14.27,7.23 22.04,5.2 7.27,-1.9 12.6,-7.28 16.58,-13.41 l 25.66,-39.51 z m 553.06,163.69 -81.07,-27.91 1.29,-51.44 c 0.11,-4.27 -0.1,-8.48 -0.96,-12.68 -0.96,-4.63 -2.91,-8.88 -5.74,-12.66 -3.23,-4.3 -7.54,-7.24 -12.6,-8.98 -5,-1.72 -10.16,-1.91 -15.31,-0.79 -4.85,1.05 -9.33,3.19 -13.01,6.54 -3.94,3.57 -6.37,8.09 -6.64,13.44 l -15.52,311.49 c -0.21,4.32 -0.09,8.65 0.46,12.94 0.59,4.61 2.2,8.9 4.89,12.69 3.05,4.3 7.61,7.12 12.54,8.82 5.06,1.74 10.5,2.28 15.7,0.8 4.51,-1.28 8.52,-3.63 11.89,-6.88 3.1,-2.98 5.7,-6.42 8.15,-9.93 l 178.28,-255.45 c 3.07,-4.39 3.98,-9.46 3.04,-14.7 -0.89,-4.88 -3.07,-9.31 -6.23,-13.12 -3.37,-4.06 -7.56,-7.08 -12.55,-8.8 -5.06,-1.75 -10.31,-2.1 -15.49,-0.67 -4.51,1.25 -8.7,3.4 -12.28,6.43 -3.28,2.78 -6.06,5.97 -8.59,9.44 z m -33.1,47.66 -56.21,80.7 5.05,-98.32 z m 245.86,218.31 37.41,81.24 63.16,11.14 56.95,-322.95 c 1.27,-7.2 1.05,-14.77 -2.98,-21.12 -4.3,-6.78 -12.06,-9.88 -19.66,-11.22 -7.61,-1.34 -15.96,-1.09 -22.32,3.82 -5.96,4.59 -8.75,11.62 -10.03,18.82 l -42.27,239.73 -22.78,-51.25 0.92,-5.23 c 0.87,-4.95 1.09,-10.05 0.32,-15.03 -0.82,-5.23 -3.02,-9.88 -6.58,-13.79 -4.1,-4.51 -9.71,-6.84 -15.62,-7.88 -5.8,-1.02 -11.71,-0.65 -17,2.13 -4.65,2.44 -8.31,6.02 -10.97,10.56 -2.58,4.42 -4.25,9.28 -5.14,14.31 l -0.92,5.24 -38.93,40.35 42.26,-239.72 c 1.27,-7.2 1.05,-14.76 -2.98,-21.12 -4.3,-6.78 -12.06,-9.88 -19.66,-11.22 -7.6,-1.34 -15.96,-1.08 -22.32,3.83 -5.96,4.59 -8.75,11.61 -10.02,18.82 l -56.94,322.95 63.16,11.13 z m 376.02,-166.05 -85.68,-2.99 -13.81,-49.57 c -1.15,-4.12 -2.57,-8.08 -4.63,-11.84 -2.27,-4.15 -5.37,-7.64 -9.19,-10.43 -4.34,-3.17 -9.32,-4.72 -14.67,-4.91 -5.26,-0.18 -10.29,1.15 -14.87,3.72 -4.33,2.43 -7.99,5.78 -10.54,10.06 -2.72,4.56 -3.72,9.6 -2.41,14.8 l 76.23,302.41 c 1.05,4.2 2.44,8.31 4.22,12.25 1.91,4.23 4.71,7.86 8.38,10.7 4.18,3.23 9.36,4.58 14.58,4.77 5.34,0.19 10.71,-0.9 15.25,-3.82 3.94,-2.55 7.08,-5.97 9.36,-10.07 2.08,-3.75 3.57,-7.8 4.88,-11.87 l 95.81,-296.41 c 1.65,-5.11 1.05,-10.2 -1.4,-14.95 -2.27,-4.41 -5.65,-8.01 -9.78,-10.72 -4.41,-2.9 -9.3,-4.56 -14.58,-4.75 -5.34,-0.19 -10.48,1.01 -15.01,3.89 -3.95,2.51 -7.33,5.79 -9.86,9.74 -2.33,3.61 -4.06,7.48 -5.46,11.54 z m -17.71,55.25 -30.17,93.61 -23.91,-95.49 z m 264.78,163.24 -31.22,2.73 -0.88,-10.1 c -0.64,-7.29 -2.81,-14.53 -8.34,-19.62 -5.9,-5.43 -14.23,-6.43 -21.9,-5.75 -7.69,0.67 -15.7,3.08 -20.57,9.46 -4.57,5.97 -5.45,13.5 -4.81,20.78 l 5.74,65.72 229.31,-20.06 -5.75,-65.72 c -0.63,-7.29 -2.81,-14.53 -8.35,-19.63 -5.89,-5.42 -14.22,-6.42 -21.89,-5.75 -7.69,0.67 -15.69,3.09 -20.57,9.47 -4.57,5.97 -5.45,13.49 -4.81,20.78 l 0.88,10.09 -31.21,2.73 -23.72,-271.05 c -0.64,-7.29 -2.81,-14.54 -8.34,-19.63 -5.91,-5.43 -14.23,-6.43 -21.91,-5.75 -7.68,0.67 -15.69,3.08 -20.56,9.47 -4.56,5.97 -5.45,13.49 -4.81,20.77 z m 241.66,-280.05 143.23,-30.44 c 4.47,-0.95 8.64,-2.72 12.34,-5.4 3.94,-2.86 6.79,-6.71 8.49,-11.27 1.96,-5.26 1.83,-11.03 0.67,-16.44 -1.15,-5.44 -3.36,-10.74 -7.3,-14.75 -3.41,-3.48 -7.57,-5.84 -12.34,-6.85 -4.47,-0.95 -9,-0.85 -13.47,0.09 l -197.84,42.06 73.99,348.07 197.84,-42.06 c 4.46,-0.95 8.64,-2.71 12.34,-5.39 3.94,-2.86 6.78,-6.71 8.49,-11.28 1.96,-5.25 1.82,-11.02 0.67,-16.44 -1.16,-5.46 -3.34,-10.67 -7.28,-14.72 -3.41,-3.51 -7.59,-5.86 -12.36,-6.87 -4.47,-0.95 -9.01,-0.86 -13.47,0.09 l -143.23,30.44 -19.58,-92.11 57.96,-12.32 c 4.47,-0.95 8.64,-2.71 12.34,-5.39 3.95,-2.87 6.78,-6.71 8.49,-11.28 1.96,-5.26 1.83,-11.02 0.67,-16.44 -1.15,-5.44 -3.36,-10.73 -7.3,-14.75 -3.41,-3.48 -7.57,-5.84 -12.34,-6.85 -4.47,-0.95 -9,-0.85 -13.47,0.09 l -57.96,12.32 z m 237.87,-99.46 c -2.55,6.71 -4.26,13.77 -4.63,20.94 -0.33,6.56 0.29,13.08 1.79,19.47 1.51,6.43 3.65,12.75 6.02,18.91 l 88.48,230.52 c 2.62,6.82 6.71,13.19 13.44,16.56 7.17,3.6 15.43,2.26 22.63,-0.51 7.24,-2.77 14.22,-7.26 17.16,-14.77 2.74,-7 1.52,-14.47 -1.1,-21.29 l -88.49,-230.52 c -1.84,-4.79 -4.03,-11.35 -3.95,-16.54 0.05,-3.11 0.95,-5.77 3.16,-7.97 3.05,-3.02 8.03,-5.24 11.98,-6.75 l 70.22,-26.96 c 3.98,-1.53 9.17,-3.23 13.49,-3.02 3.08,0.15 5.53,1.59 7.61,3.83 3.54,3.8 6.29,10.15 8.13,14.94 l 88.49,230.51 c 2.62,6.83 6.71,13.2 13.43,16.57 7.18,3.6 15.43,2.26 22.64,-0.5 7.23,-2.78 14.22,-7.27 17.15,-14.78 2.75,-7 1.53,-14.47 -1.1,-21.3 l -88.48,-230.5 c -2.37,-6.17 -5,-12.29 -8.19,-18.09 -3.16,-5.75 -7.06,-11.01 -11.69,-15.66 -5.08,-5.09 -11.07,-9.19 -17.45,-12.47 -6.79,-3.49 -14.09,-6.15 -21.64,-7.38 -7.04,-1.13 -14.18,-1.24 -21.23,-0.14 -7.25,1.14 -14.33,3.24 -21.17,5.86 l -70.23,26.96 c -6.84,2.63 -13.5,5.81 -19.64,9.81 -5.96,3.88 -11.17,8.75 -15.62,14.29 -4.81,5.98 -8.49,12.81 -11.21,19.98 z m 380.45,11.53 -74.56,-140.23 c -3.44,-6.45 -8.26,-12.28 -15.35,-14.8 -7.56,-2.69 -15.6,-0.36 -22.4,3.26 -6.81,3.62 -13.24,8.97 -15.24,16.75 -1.86,7.27 0.27,14.56 3.69,21.01 l 153.96,289.54 136.39,-72.52 c 8.35,-4.44 15.73,-10.25 22.1,-17.22 6.37,-6.97 11.33,-14.86 14.87,-23.6 3.56,-8.8 5.21,-18.13 4.93,-27.62 -0.3,-10.21 -3.12,-19.87 -7.9,-28.87 l -14.33,-26.95 c -4.87,-9.17 -11.4,-17.27 -19.86,-23.34 -7.65,-5.5 -16.14,-9.23 -25.4,-10.94 -9.12,-1.68 -18.27,-1.65 -27.4,0 -9.25,1.68 -18.1,4.8 -26.41,9.23 l -26.13,13.89 19.67,-161.52 c 0.36,-2.95 0.82,-5.87 1.09,-8.83 0.31,-3.37 0.35,-6.75 0.04,-10.11 -0.33,-3.61 -1.3,-7.14 -2.99,-10.36 -2.34,-4.43 -5.77,-8.08 -10.16,-10.54 -4.14,-2.31 -8.74,-3.39 -13.48,-3.3 -4.93,0.07 -9.6,1.33 -13.95,3.68 -4.65,2.53 -8.39,6.18 -10.69,10.98 -2.03,4.25 -3.09,8.83 -3.66,13.48 l -25.62,208.29 z m 53.18,100.02 -26.97,-50.72 81.63,-43.4 c 2.86,-1.52 5.78,-2.94 8.78,-4.2 2.8,-1.17 5.73,-2.06 8.74,-2.5 2.31,-0.33 4.5,-0.16 6.65,0.73 2.21,0.91 3.76,2.98 4.85,5.03 l 14.33,26.95 c 1.13,2.13 2.09,4.74 1.71,7.19 -0.36,2.3 -1.29,4.32 -2.74,6.12 -1.89,2.32 -4.07,4.37 -6.53,6.09 -2.7,1.88 -5.52,3.55 -8.44,5.1 z m 418,-442.28 -114.25,-110.33 c -5.26,-5.08 -11.65,-9.12 -19.17,-9.34 -8.02,-0.22 -14.95,4.49 -20.3,10.03 -5.33,5.52 -9.82,12.67 -9.31,20.64 0.47,7.51 4.73,13.76 10,18.83 l 235.89,227.81 107.3,-111.12 c 6.58,-6.81 11.8,-14.61 15.7,-23.22 3.91,-8.59 6.19,-17.62 6.85,-27.03 0.67,-9.47 -0.65,-18.85 -3.84,-27.79 -3.44,-9.63 -9.1,-17.94 -16.44,-25.02 l -21.96,-21.21 c -7.46,-7.2 -16.17,-12.9 -26.1,-16.06 -8.97,-2.86 -18.2,-3.78 -27.54,-2.55 -9.18,1.22 -17.88,4.08 -26.04,8.47 -8.29,4.45 -15.74,10.16 -22.28,16.93 l -20.55,21.29 -31.21,-159.69 c -0.57,-2.91 -1.04,-5.84 -1.69,-8.73 -0.75,-3.3 -1.75,-6.53 -3.09,-9.63 -1.43,-3.33 -3.45,-6.39 -6.05,-8.93 -3.59,-3.49 -7.98,-5.9 -12.91,-6.88 -4.67,-0.93 -9.35,-0.53 -13.85,1.01 -4.66,1.61 -8.71,4.24 -12.12,7.82 -3.64,3.84 -6.08,8.48 -6.78,13.75 -0.62,4.66 -0.21,9.36 0.69,13.96 l 40,206 z m 81.49,78.68 -41.33,-39.9 64.21,-66.5 c 2.26,-2.33 4.6,-4.57 7.06,-6.7 2.3,-1.99 4.82,-3.74 7.54,-5.08 2.08,-1.03 4.24,-1.54 6.55,-1.36 2.39,0.18 4.5,1.67 6.16,3.28 l 21.97,21.21 c 1.73,1.67 3.45,3.86 3.84,6.3 0.37,2.29 0.12,4.51 -0.72,6.67 -1.07,2.79 -2.51,5.42 -4.32,7.81 -1.99,2.63 -4.15,5.09 -6.45,7.46 z m 106.1,-455.44 -51.6,68.47 -48.52,-17.12 c -4.04,-1.42 -8.1,-2.53 -12.36,-3 -4.68,-0.52 -9.36,0.03 -13.81,1.55 -5.09,1.73 -9.22,4.92 -12.44,9.2 -3.18,4.23 -4.96,9.07 -5.48,14.32 -0.5,4.93 0.15,9.85 2.19,14.39 2.18,4.85 5.74,8.56 10.75,10.46 l 291.43,111.02 c 4.05,1.55 8.21,2.77 12.47,3.57 4.55,0.86 9.13,0.66 13.56,-0.73 5.04,-1.57 9.13,-5.04 12.27,-9.2 3.23,-4.28 5.41,-9.28 5.61,-14.69 0.18,-4.68 -0.82,-9.22 -2.87,-13.44 -1.87,-3.86 -4.34,-7.4 -6.92,-10.81 l -187.85,-248.49 c -3.24,-4.29 -7.75,-6.71 -13.05,-7.44 -4.89,-0.66 -9.82,0.05 -14.4,1.87 -4.9,1.95 -9.07,5 -12.25,9.22 -3.23,4.28 -5.18,9.14 -5.42,14.52 -0.21,4.68 0.54,9.33 2.32,13.67 1.63,3.98 3.8,7.61 6.32,11.09 z m 35.09,46.2 59.38,78.41 -91.94,-35.19 z m 41.09,-212.06 211.46,122.08 -5.29,9.17 c -2.6,4.49 -4.66,9.33 -5.68,14.43 -1.06,5.22 -0.61,10.42 1.48,15.32 2.36,5.53 6.86,9.64 11.98,12.6 4.98,2.87 10.64,4.64 16.43,4.03 5.15,-0.54 9.8,-2.51 13.83,-5.78 3.95,-3.22 7.11,-7.13 9.65,-11.54 l 36.95,-64 c 5.31,-9.19 9.66,-19.28 11.24,-29.85 1.43,-9.55 0.66,-19.04 -2.28,-28.25 -3.16,-9.92 -8.33,-19.31 -14.05,-27.97 l -47.98,-72.66 c -3.48,-5.28 -7.22,-10.38 -11.23,-15.28 -3.78,-4.61 -7.97,-8.86 -12.54,-12.68 -4.97,-4.15 -10.38,-7.79 -15.99,-11.03 -7.79,-4.5 -16.1,-7.97 -24.83,-10.17 -8.61,-2.15 -17.43,-3.29 -26.28,-3.82 l -89.89,-5.4 c -10.65,-0.63 -21.87,-0.25 -32.14,2.86 -9.37,2.84 -17.65,7.7 -24.8,14.36 -7.77,7.25 -14.1,16.25 -19.4,25.42 l -36.72,63.61 c -2.29,3.96 -3.77,8.24 -4.26,12.79 -0.5,4.84 0.46,9.53 2.71,13.85 2.6,4.99 6.96,8.72 11.76,11.5 4.8,2.77 10.25,4.68 15.85,4.44 4.87,-0.21 9.41,-1.72 13.34,-4.59 3.7,-2.68 6.67,-6.11 8.95,-10.07 z m 239.38,73.73 -211.47,-122.09 1.31,-2.26 c 2.05,-3.55 4.61,-7.92 7.45,-10.89 1.74,-1.81 3.72,-2.94 6.17,-3.48 3.7,-0.82 8.8,-0.52 12.57,-0.28 l 87.68,5.65 c 3.37,0.22 6.72,0.54 10.07,0.96 2.84,0.36 5.66,0.95 8.4,1.81 2.83,0.88 5.56,2.09 8.12,3.57 3.44,1.99 6.78,4.32 9.64,7.07 2.63,2.53 4.97,5.33 7.09,8.29 2.48,3.48 4.87,7.03 7.25,10.58 l 46.4,69.2 c 2.06,3.07 4.32,6.55 5.75,9.97 0.73,1.7 1.32,3.72 1.19,5.59 -0.16,2.05 -1.07,4.27 -1.97,6.1 -1.7,3.46 -3.72,6.86 -5.65,10.21 z m 160.32,-338.51 -226.4,-91.47 22.2,-54.94 c 1.71,-4.23 2.58,-8.68 2.43,-13.25 -0.17,-4.86 -1.77,-9.37 -4.6,-13.34 -3.27,-4.57 -8.11,-7.66 -13.26,-9.75 -5.14,-2.07 -10.79,-3.21 -16.3,-2.19 -4.8,0.89 -9.08,3.01 -12.58,6.4 -3.29,3.18 -5.75,6.99 -7.46,11.22 l -65.31,161.65 c -1.71,4.23 -2.59,8.68 -2.43,13.25 0.17,4.87 1.77,9.37 4.6,13.34 3.27,4.58 8.11,7.67 13.25,9.75 5.14,2.07 10.8,3.21 16.32,2.19 4.79,-0.88 9.07,-3.01 12.57,-6.4 3.29,-3.18 5.75,-6.98 7.45,-11.22 l 22.2,-54.94 226.41,91.48 -22.2,54.94 c -1.71,4.23 -2.59,8.68 -2.43,13.25 0.16,4.87 1.75,9.4 4.62,13.36 3.31,4.58 8.06,7.63 13.23,9.73 5.14,2.07 10.79,3.21 16.31,2.19 4.79,-0.89 9.07,-3.02 12.58,-6.4 3.29,-3.18 5.75,-6.99 7.46,-11.22 l 65.31,-161.65 c 1.71,-4.23 2.58,-8.68 2.42,-13.25 -0.16,-4.87 -1.76,-9.37 -4.59,-13.34 -3.27,-4.58 -8.11,-7.67 -13.26,-9.75 -5.17,-2.09 -10.73,-3.19 -16.28,-2.2 -4.81,0.87 -9.09,3.01 -12.61,6.41 -3.28,3.18 -5.74,6.98 -7.45,11.21 z m 115.37,-330.52 -72.46,-66.8 c -4.49,-4.15 -9.28,-7.96 -14.32,-11.42 -4.72,-3.24 -9.72,-6.06 -14.94,-8.38 -5.53,-2.45 -11.3,-4.45 -17.11,-6.11 -6.51,-1.87 -13.23,-3.21 -19.99,-3.68 -6.14,-0.43 -12.31,-0.42 -18.43,0.24 -6.32,0.68 -12.63,1.67 -18.88,2.83 l -89.49,16.7 c -8.11,1.51 -16,4.03 -23.36,7.78 -7.37,3.76 -13.79,8.77 -19.18,15.04 -5.77,6.71 -9.71,14.56 -12.15,23.04 -2.42,8.44 -3.22,17.22 -1.89,25.91 1.25,8.21 4,15.88 8.28,22.99 4.25,7.08 9.61,13.4 15.69,18.99 l 67.04,61.57 c 4.69,4.3 9.51,8.48 14.51,12.41 4.86,3.81 10.07,7.12 15.53,9.99 6,3.14 12.37,5.58 18.87,7.45 5.82,1.67 11.76,3.04 17.75,3.88 5.67,0.8 11.4,1.06 17.1,0.82 6.12,-0.26 12.2,-0.96 18.21,-2.1 l 96.84,-18.26 c 8.11,-1.53 15.86,-4.21 23.17,-8.03 7.23,-3.79 13.6,-8.79 18.95,-14.96 5.69,-6.57 9.62,-14.22 12.02,-22.57 2.38,-8.32 3.11,-16.94 1.76,-25.51 -1.27,-8.08 -3.97,-15.73 -8.12,-22.8 -4.16,-7.09 -9.36,-13.44 -15.4,-19.02 z m -104.88,-20.67 66.01,60.36 c 1.75,1.6 3.56,3.19 5.23,4.88 0.95,0.97 1.59,2.07 2.02,3.35 0.38,1.13 0.02,2.91 -0.3,4.02 -0.31,1.1 -0.95,2.8 -1.88,3.56 -1.04,0.86 -2.16,1.45 -3.48,1.77 -2.32,0.55 -4.69,0.94 -7.02,1.37 l -87.97,16.21 c -4.12,0.76 -8.29,1.61 -12.44,2.1 -3.51,0.41 -7.07,0.42 -10.59,0.14 -3.9,-0.3 -7.83,-1.14 -11.58,-2.21 -4.4,-1.27 -8.79,-2.98 -12.69,-5.4 -3.94,-2.45 -7.58,-5.42 -10.97,-8.56 l -69.12,-64.01 c -1.62,-1.5 -3.24,-3.02 -4.76,-4.63 -1.02,-1.08 -1.81,-2.35 -2.32,-3.76 -0.43,-1.21 -0.24,-2.68 0.1,-3.89 0.36,-1.24 0.95,-2.54 1.98,-3.35 1.19,-0.94 2.57,-1.58 4.04,-1.98 2.1,-0.58 4.27,-0.97 6.41,-1.37 l 92.53,-17.67 c 4.51,-0.86 9.19,-1.48 13.8,-1.44 4.61,0.04 9.23,0.87 13.66,2.14 3.76,1.08 7.53,2.46 11,4.26 3.13,1.63 6.14,3.53 8.9,5.73 3.26,2.63 6.35,5.56 9.44,8.38 z m -109.56,-593.68 c 0.17,0.1 0.32,0.21 0.44,0.29 1.47,1.03 2.93,2.06 4.3,3.22 1.2,1.02 2.41,2.02 3.62,3.03 l 189.73,158.5 c 3.69,3.08 7.52,6.06 11.55,8.69 3.93,2.55 8.09,4.61 12.55,6.06 4.87,1.59 10.07,2.3 15.18,2.46 9.57,0.29 18.73,-1.57 27.27,-5.9 8.52,-4.34 15.48,-10.71 20.94,-18.54 2.82,-4.04 5.23,-8.49 6.77,-13.19 1.38,-4.22 2.33,-8.55 2.74,-13 0.39,-4.43 0.61,-8.89 0.76,-13.35 l 3.28,-93.75 c 0.29,-8.45 -0.38,-16.97 -2.54,-25.16 -2.25,-8.47 -6.33,-16.12 -11.79,-22.95 -3.64,-4.55 -7.97,-8.51 -12.64,-11.98 -4.79,-3.57 -10.03,-6.47 -15.57,-8.69 -5.56,-2.22 -11.37,-3.5 -17.36,-3.75 -5.23,-0.22 -10.37,0.49 -15.28,2.35 -4.94,1.87 -9,4.93 -12.11,9.21 -3.42,4.71 -4.88,10.36 -5.09,16.12 -0.27,7.38 1.64,14.47 6.78,19.93 5.01,5.32 11.58,7.72 18.81,8.02 2.21,0.09 6.13,0.43 8.01,1.76 1.34,0.94 2.03,2.35 2.38,3.92 0.7,3.16 0.68,6.93 0.57,10.16 l -3.28,93.75 c -0.07,2.01 -0.06,4.03 -0.13,6.04 -0.04,1.1 -0.23,2.17 -0.66,3.17 -0.42,-0.1 -1.09,-0.46 -1.4,-0.64 -1.19,-0.72 -2.35,-1.53 -3.43,-2.42 -1.08,-0.9 -2.22,-1.72 -3.29,-2.62 l -189.71,-158.94 c -3.69,-3.08 -7.5,-6.03 -11.49,-8.71 -4.01,-2.7 -8.32,-4.88 -12.87,-6.52 -4.94,-1.78 -10.12,-2.73 -15.37,-2.88 -10.94,-0.3 -21.84,1.7 -31.21,7.58 -8.59,5.38 -15.07,12.74 -19.5,21.85 -4.6,9.48 -6.79,19.63 -7.16,30.14 l -3.39,97.29 c -0.3,8.49 0.27,17.05 2.28,25.33 2.11,8.66 6.08,16.52 11.51,23.56 3.55,4.6 7.67,8.7 12.3,12.19 4.7,3.53 9.8,6.49 15.28,8.63 5.52,2.16 11.24,3.41 17.17,3.66 5.4,0.22 10.65,-0.6 15.67,-2.6 4.97,-1.98 9.11,-5.1 12.33,-9.37 3.55,-4.69 5.19,-10.3 5.38,-16.14 0.17,-5.09 -0.95,-10.04 -3.64,-14.4 -2.51,-4.07 -5.99,-7.33 -10.21,-9.58 -4.22,-2.25 -8.79,-3.4 -13.56,-3.57 -1.66,-0.06 -5,-0.34 -6.37,-1.41 -1.11,-0.86 -1.65,-2.03 -1.93,-3.39 -0.6,-2.89 -0.57,-6.25 -0.47,-9.19 l 3.35,-95.97 c 0.06,-1.79 0.05,-3.59 0.11,-5.38 0.03,-0.96 0.14,-1.96 0.39,-2.92 z m 203.62,-340.09 -94.4,-28.29 c -5.86,-1.75 -11.83,-3.09 -17.88,-3.98 -5.66,-0.84 -11.39,-1.18 -17.1,-0.98 -6.05,0.22 -12.1,0.96 -18.06,2.01 -6.67,1.18 -13.29,2.91 -19.58,5.45 -5.71,2.31 -11.24,5.02 -16.46,8.3 -5.38,3.38 -10.62,7.03 -15.73,10.83 l -73.11,54.23 c -6.63,4.91 -12.62,10.64 -17.59,17.23 -4.97,6.61 -8.55,13.93 -10.64,21.93 -2.25,8.56 -2.35,17.35 -0.82,26.04 1.53,8.66 4.64,16.86 9.66,24.11 4.72,6.83 10.56,12.51 17.51,17.03 6.93,4.5 14.52,7.84 22.43,10.19 l 87.25,25.95 c 6.1,1.81 12.26,3.45 18.48,4.79 6.04,1.3 12.17,2 18.34,2.17 6.77,0.2 13.56,-0.39 20.23,-1.57 5.95,-1.05 11.9,-2.43 17.66,-4.3 5.44,-1.75 10.7,-4.03 15.72,-6.75 5.39,-2.92 10.54,-6.21 15.45,-9.87 l 79.03,-58.87 c 6.62,-4.93 12.41,-10.74 17.3,-17.37 4.85,-6.58 8.38,-13.87 10.47,-21.75 2.24,-8.41 2.42,-17.01 0.92,-25.56 -1.51,-8.55 -4.62,-16.57 -9.6,-23.7 -4.68,-6.71 -10.47,-12.39 -17.29,-16.93 -6.86,-4.56 -14.31,-7.98 -22.19,-10.34 z m -130.93,141.16 c -4.61,-0.48 -9.19,-1.55 -13.62,-2.88 l -90.18,-27.24 c -2.11,-0.64 -4.23,-1.29 -6.3,-2.07 -1.4,-0.52 -2.67,-1.32 -3.74,-2.36 -0.92,-0.9 -1.39,-2.31 -1.61,-3.54 -0.23,-1.27 -0.27,-2.69 0.3,-3.88 0.66,-1.37 1.63,-2.55 2.76,-3.55 1.64,-1.44 3.42,-2.74 5.16,-4.05 l 75.43,-56.43 c 3.68,-2.76 7.61,-5.37 11.77,-7.35 4.17,-1.98 8.68,-3.26 13.22,-4.06 3.85,-0.68 7.84,-1.1 11.75,-1 3.53,0.1 7.06,0.48 10.51,1.26 4.09,0.92 8.14,2.2 12.16,3.39 l 85.79,25.31 c 2.28,0.67 4.59,1.31 6.83,2.09 1.29,0.45 2.34,1.16 3.29,2.13 0.84,0.85 1.3,2.6 1.5,3.74 0.2,1.13 0.37,2.94 -0.13,4.03 -0.56,1.23 -1.31,2.25 -2.36,3.12 -1.84,1.51 -3.8,2.89 -5.71,4.3 l -71.96,53.13 c -3.37,2.49 -6.74,5.08 -10.26,7.34 -2.97,1.91 -6.17,3.48 -9.45,4.78 -3.64,1.43 -7.54,2.41 -11.38,3.08 -4.52,0.8 -9.2,1.18 -13.77,0.71 z m -260.69,-392.76 23.93,73.64 c 3.21,9.9 7.68,19.61 14.14,27.83 5.91,7.5 13.23,13.41 21.77,17.66 9.12,4.54 19.2,7.12 29.25,8.59 l 90.85,13.28 c 8.32,1.22 16.73,1.86 25.14,1.48 8.63,-0.39 17.16,-2.02 25.37,-4.69 5.84,-1.9 11.58,-4.17 17.06,-6.94 5.07,-2.56 9.84,-5.63 14.32,-9.13 4.83,-3.79 9.39,-7.97 13.77,-12.27 l 65.28,-64.01 c 7.49,-7.34 14.48,-15.7 19.26,-25.09 4.4,-8.63 6.77,-17.84 6.94,-27.53 0.17,-10.58 -2.16,-21.23 -5.41,-31.24 l -23.24,-71.55 c -1.31,-4.01 -3.36,-7.7 -6.11,-10.91 -3.2,-3.72 -7.2,-6.25 -11.88,-7.74 -5.65,-1.79 -11.64,-1.07 -17.19,0.73 -5.43,1.76 -10.35,4.66 -13.91,9.2 -3.02,3.88 -4.86,8.31 -5.34,13.2 -0.41,4.32 -0.02,8.64 1.33,12.78 l 22.83,70.28 c 1.12,3.43 2.24,7.02 2.94,10.56 0.36,1.83 0.47,3.78 0.06,5.61 -0.4,1.77 -1.44,3.45 -2.52,4.87 -2.1,2.76 -4.81,5.4 -7.27,7.82 l -61.33,60.41 c -2.76,2.7 -5.62,5.3 -8.58,7.78 -2.54,2.12 -5.21,4.09 -8.1,5.72 -3.19,1.81 -6.67,3.21 -10.16,4.35 -3.09,1 -6.31,1.71 -9.55,1.95 -3.02,0.23 -6.04,0.23 -9.05,-0.1 -3.58,-0.4 -7.14,-0.97 -10.7,-1.48 l -84.42,-12.12 c -4.11,-0.59 -9.61,-1.45 -13.41,-3.19 -2.39,-1.1 -4.09,-2.77 -5.38,-5.06 -2.23,-3.95 -3.9,-9.04 -5.3,-13.35 l -22.29,-68.6 c -1.3,-3.98 -3.37,-7.66 -6.07,-10.86 -3.18,-3.77 -7.23,-6.3 -11.92,-7.79 -5.62,-1.78 -11.67,-1.07 -17.19,0.73 -5.4,1.76 -10.41,4.68 -13.92,9.22 -3,3.88 -4.86,8.3 -5.33,13.18 -0.41,4.32 -0.02,8.64 1.33,12.78 z m 151.25,-358.17 -209.31,125.76 -30.52,-50.79 c -2.35,-3.91 -5.37,-7.29 -9.12,-9.91 -3.98,-2.8 -8.55,-4.24 -13.42,-4.36 -5.6,-0.14 -11.02,1.87 -15.76,4.72 -4.77,2.86 -9.06,6.67 -11.57,11.71 -2.18,4.35 -3.05,9.05 -2.46,13.89 0.56,4.54 2.12,8.79 4.47,12.71 l 89.79,149.44 c 2.36,3.91 5.38,7.29 9.13,9.91 3.99,2.8 8.55,4.23 13.42,4.36 5.6,0.14 11.02,-1.87 15.77,-4.72 4.76,-2.86 9.05,-6.67 11.56,-11.7 2.18,-4.36 3.06,-9.07 2.46,-13.9 -0.56,-4.54 -2.12,-8.8 -4.47,-12.71 l -30.52,-50.79 209.3,-125.76 30.52,50.79 c 2.35,3.91 5.38,7.29 9.12,9.91 4,2.81 8.57,4.26 13.45,4.36 5.64,0.12 10.96,-1.85 15.74,-4.72 4.76,-2.86 9.05,-6.67 11.56,-11.7 2.18,-4.36 3.06,-9.06 2.46,-13.9 -0.56,-4.54 -2.12,-8.8 -4.47,-12.71 l -89.79,-149.44 c -2.36,-3.91 -5.38,-7.29 -9.12,-9.91 -3.99,-2.8 -8.56,-4.23 -13.42,-4.36 -5.61,-0.14 -11.03,1.87 -15.77,4.72 -4.79,2.88 -9.01,6.64 -11.55,11.68 -2.21,4.36 -3.07,9.08 -2.48,13.92 0.57,4.54 2.12,8.8 4.48,12.71 z m -310.9,-54.66 -88.12,-116.93 c -2.74,-3.65 -6.11,-6.69 -10.1,-8.91 -4.25,-2.36 -8.97,-3.31 -13.81,-2.93 -5.61,0.45 -10.75,3 -15.18,6.34 -4.44,3.34 -8.31,7.59 -10.28,12.85 -1.71,4.56 -2.09,9.33 -0.99,14.08 1.02,4.45 3.03,8.52 5.77,12.17 l 121.73,161.53 284.19,-214.15 -121.72,-161.54 c -2.75,-3.64 -6.11,-6.68 -10.11,-8.9 -4.25,-2.36 -8.97,-3.31 -13.81,-2.93 -5.6,0.44 -10.75,3 -15.18,6.34 -4.46,3.36 -8.26,7.54 -10.27,12.82 -1.74,4.57 -2.1,9.35 -1,14.11 1.03,4.45 3.03,8.52 5.77,12.17 l 88.13,116.93 -75.21,56.68 -35.66,-47.32 c -2.75,-3.64 -6.11,-6.69 -10.11,-8.91 -4.25,-2.35 -8.97,-3.31 -13.8,-2.93 -5.61,0.45 -10.75,3 -15.19,6.34 -4.44,3.34 -8.31,7.59 -10.28,12.85 -1.71,4.56 -2.09,9.33 -0.99,14.08 1.03,4.46 3.03,8.53 5.78,12.17 l 35.66,47.32 z m -24.45,-425.672 21.37,22.918 -7.41,6.914 c -5.35,4.992 -9.72,11.16 -10.33,18.66 -0.64,7.98 3.7,15.17 8.95,20.8 5.27,5.64 12.1,10.47 20.12,10.38 7.53,-0.09 13.99,-4.02 19.34,-9 l 48.25,-44.996 -156.98,-168.344 -48.25,44.992 c -5.35,4.992 -9.72,11.164 -10.33,18.66 -0.64,7.981 3.7,15.176 8.95,20.801 5.26,5.641 12.09,10.465 20.13,10.379 7.52,-0.082 13.98,-4.016 19.33,-9.004 l 7.41,-6.91 21.37,22.914 -198.99,185.568 c -5.35,4.99 -9.73,11.16 -10.33,18.66 -0.65,7.98 3.7,15.17 8.94,20.8 5.27,5.64 12.1,10.46 20.13,10.38 7.52,-0.08 13.98,-4.01 19.34,-9 z m -366.1,-154.754 -87.87,108.512 c -4.57,5.648 -8.07,12.457 -7.63,19.914 0.48,8.015 5.76,14.496 11.76,19.351 5.96,4.829 13.48,8.672 21.37,7.473 7.44,-1.125 13.29,-5.914 17.89,-11.601 l 87.87,-108.512 139.04,-33.172 29.64,-36.613 c 4.58,-5.645 8.07,-12.453 7.63,-19.911 -0.47,-8.05 -5.73,-14.476 -11.75,-19.355 -6,-4.852 -13.44,-8.68 -21.38,-7.473 -7.43,1.129 -13.28,5.918 -17.89,11.602 l -17.7,21.855 -94.5,22.539 2.41,-97.121 17.69,-21.851 c 4.58,-5.649 8.08,-12.457 7.63,-19.91 -0.47,-8.051 -5.73,-14.481 -11.76,-19.356 -5.99,-4.855 -13.43,-8.68 -21.37,-7.476 -7.43,1.129 -13.29,5.921 -17.89,11.605 l -29.64,36.606 -3.55,142.894" /></g></g></svg>